<?xml version="1.0" encoding="UTF-8"?>
<svg version="1.1" xmlns="http://www.w3.org/2000/svg" width="512" height="512">
<path d="M0 0 C2.71971961 -0.00322745 5.43941225 -0.01240763 8.15911865 -0.02124023 C14.75581647 -0.03894918 21.35233138 -0.03521974 27.94903612 -0.02358967 C33.3142855 -0.0145254 38.67948392 -0.01334423 44.04473877 -0.01768494 C44.81077443 -0.01829787 45.57681009 -0.0189108 46.36605895 -0.01954231 C47.92265051 -0.02082132 49.47924206 -0.02211817 51.0358336 -0.02343267 C65.60349783 -0.03481613 80.17106107 -0.02175996 94.73870873 -0.00023121 C107.21583031 0.01763776 119.69280298 0.01453302 132.16992188 -0.00390625 C146.68841944 -0.02535257 161.20682869 -0.0337177 175.72533989 -0.0214572 C177.27593866 -0.02018311 178.82653744 -0.01892563 180.37713623 -0.01768494 C181.13989479 -0.01706783 181.90265334 -0.01645073 182.6885258 -0.01581493 C188.04214845 -0.01237329 193.3957147 -0.01816466 198.74932861 -0.02760315 C205.28105473 -0.03886645 211.81258877 -0.03569273 218.34429312 -0.01448017 C221.67166318 -0.00402728 224.99845172 -0.0019313 228.32585907 -0.01307678 C247.21183594 -0.0704862 262.53863393 0.30590158 276.9609375 13.89257812 C286.04305471 23.4792574 289.3206388 34.7221807 289.35137939 47.7640686 C289.35583608 48.82486541 289.35583608 48.82486541 289.3603828 49.90709245 C289.36901983 52.26505949 289.3705738 54.62297546 289.37207031 56.98095703 C289.37670209 58.67663683 289.38172724 60.3723156 289.38711548 62.06799316 C289.40020833 66.66747008 289.40667855 71.26693241 289.41112614 75.86642504 C289.41406239 78.74403483 289.41816828 81.6216407 289.42263031 84.4992485 C289.43629813 93.51422755 289.44596783 102.52919755 289.4498322 111.54418623 C289.45430886 121.92877649 289.47184155 132.31323485 289.5008328 142.69778502 C289.52249721 150.73879405 289.53253905 158.77976611 289.53387332 166.820804 C289.5349181 171.61662714 289.54075586 176.41232619 289.55869293 181.20811844 C289.57525571 185.72420952 289.57728957 190.24008431 289.56855392 194.75619507 C289.56778788 196.40564939 289.57206865 198.05511573 289.58201218 199.70454025 C289.6689034 215.02743978 287.85519972 229.61360744 276.9609375 241.33007812 C265.33091924 252.03585652 252.45129849 254.67945777 237.14697266 254.63110352 C235.33149429 254.63132256 235.33149429 254.63132256 233.4793396 254.63154602 C230.17399047 254.6309702 226.86870439 254.62596721 223.56336641 254.61897206 C220.10404427 254.61270567 216.64472123 254.61213213 213.18539429 254.61094666 C206.6407153 254.60784301 200.09605308 254.59964269 193.55138147 254.58959717 C186.09794028 254.57840597 178.64449827 254.57291801 171.19105077 254.56790173 C155.86433499 254.55745925 140.5376423 254.53912581 125.2109375 254.51757812 C125.2109375 267.05757813 125.2109375 279.59757812 125.2109375 292.51757812 C130.4909375 289.54757812 135.7709375 286.57757813 141.2109375 283.51757812 C151.31620066 278.46494655 151.31620066 278.46494655 158.2109375 280.51757812 C161.25129273 282.32885358 162.75163207 283.73019738 164.5234375 286.76757812 C165.82914144 291.99039389 166.23289995 295.69562353 163.60131836 300.38720703 C160.96318945 303.84202154 158.23701116 305.70748501 154.50390625 307.76367188 C153.15504925 308.53887788 151.80659377 309.31478286 150.45849609 310.09130859 C149.41069977 310.68646271 149.41069977 310.68646271 148.34173584 311.29364014 C145.52361513 312.91237849 142.74736165 314.59578012 139.97097778 316.28482056 C137.19649659 317.97261607 134.41174415 319.64308972 131.62719727 321.31420898 C130.20311002 322.17110725 128.78095927 323.03123066 127.3605957 323.89428711 C125.26999285 325.16370855 123.17293178 326.42177941 121.07421875 327.67773438 C120.44195877 328.06510269 119.80969879 328.45247101 119.15827942 328.85157776 C115.79623805 330.84709003 114.23388161 331.51757812 110.2109375 331.51757812 C107.38037109 330.1315918 107.38037109 330.1315918 104.109375 328.18554688 C103.22446129 327.66391464 103.22446129 327.66391464 102.32167053 327.13174438 C100.40434874 325.99836534 98.49493764 324.85240965 96.5859375 323.70507812 C95.27250541 322.92228572 93.95878347 322.13997946 92.64477539 321.3581543 C90.03606233 319.80394365 87.43078846 318.24416908 84.82763672 316.68066406 C81.71104366 314.81146515 78.57630462 312.97540893 75.43359375 311.15039062 C73.83815116 310.21094933 72.24306384 309.27090427 70.6484375 308.33007812 C69.93671387 307.92233154 69.22499023 307.51458496 68.49169922 307.09448242 C64.19570541 304.51890703 61.61570862 302.05658361 59.2109375 297.51757812 C58.28357514 293.5452543 59.02060886 290.09975985 60.2734375 286.26757812 C62.71106544 282.80771911 65.20012743 280.77877743 69.2109375 279.51757812 C76.96002949 278.93598563 82.88174432 282.69003406 89.2734375 286.58007812 C92.5528125 288.53945313 95.8321875 290.49882812 99.2109375 292.51757812 C99.2109375 279.97757812 99.2109375 267.43757813 99.2109375 254.51757812 C93.67070801 254.5411438 93.67070801 254.5411438 88.01855469 254.56518555 C75.78902721 254.61498706 63.55950674 254.64822245 51.32990646 254.67301464 C43.918127 254.68844144 36.50644405 254.70945016 29.09472656 254.74389648 C22.62984563 254.77392785 16.16503464 254.79318351 9.70008588 254.79984361 C6.28129996 254.80373278 2.86271403 254.81278382 -0.55600739 254.8347683 C-4.38543861 254.85667642 -8.21446109 254.85953939 -12.04394531 254.8581543 C-13.16029358 254.86894012 -14.27664185 254.87972595 -15.42681885 254.89083862 C-30.45460756 254.8323639 -42.416269 250.50870477 -53.421875 240.24023438 C-64.17177326 227.87607746 -65.09015588 213.27231318 -65.0637207 197.71362305 C-65.06807356 196.01749956 -65.07325861 194.32137804 -65.07920837 192.6252594 C-65.09254904 188.03833372 -65.09318247 183.45149069 -65.09064507 178.8645494 C-65.08957185 175.02539009 -65.0944678 171.18624726 -65.0992505 167.3470915 C-65.11032898 158.28370915 -65.11079266 149.22036825 -65.10473633 140.15698242 C-65.09869956 130.83037118 -65.11100382 121.50391092 -65.1323064 112.17732543 C-65.14996435 104.14898764 -65.15591709 96.12069772 -65.15266865 88.09234124 C-65.15086208 83.30663304 -65.15342907 78.52103251 -65.16738319 73.73534203 C-65.18002508 69.23150926 -65.17795772 64.72791051 -65.16497231 60.22408104 C-65.16262063 58.57946694 -65.16529014 56.93483605 -65.17359543 55.29024124 C-65.25159089 38.63316758 -62.89366111 25.24371356 -51.19921875 12.84570312 C-36.63861367 -1.2193222 -18.96554661 -0.06352698 0 0 Z M-36.2265625 34.64257812 C-38.66895228 39.13657531 -38.92074235 42.36600621 -38.94296265 47.43022156 C-38.9473449 48.13767842 -38.95172715 48.84513528 -38.9562422 49.57403022 C-38.96962377 51.95064198 -38.97580763 54.32721667 -38.98193359 56.70385742 C-38.98983511 58.4055854 -38.9981041 60.10731171 -39.00671387 61.80903625 C-39.03292977 67.40327353 -39.04824179 72.99751826 -39.0625 78.59179688 C-39.06785999 80.51798825 -39.0732375 82.44417958 -39.07863235 84.37037086 C-39.10026108 92.38351512 -39.11899731 100.39665736 -39.13025475 108.40982342 C-39.14649074 119.89108263 -39.17966015 131.37200324 -39.23665559 142.85313481 C-39.27536944 150.92713891 -39.29488919 159.0010525 -39.30017531 167.07514697 C-39.30382698 171.89669952 -39.31582859 176.71789088 -39.34827805 181.53934288 C-39.37838383 186.07764402 -39.38466162 190.61536592 -39.37289429 195.15374565 C-39.37267376 196.81618154 -39.38096185 198.47864451 -39.39854813 200.1409874 C-39.69242275 212.27310175 -39.69242275 212.27310175 -33.7890625 222.51757812 C-29.36805141 226.71753866 -25.06348357 228.76434084 -18.94824505 228.77484703 C-17.9957398 228.78129592 -17.04323455 228.78774482 -16.06186551 228.79438913 C-15.02354874 228.79129192 -13.98523197 228.78819472 -12.91545105 228.78500366 C-11.25142029 228.79180033 -11.25142029 228.79180033 -9.55377275 228.79873431 C-5.82901929 228.81141492 -2.10441136 228.80975555 1.62036133 228.80810547 C4.28789312 228.81408843 6.95541344 228.82083667 9.62294006 228.82846069 C16.12141282 228.84506791 22.61984928 228.85057012 29.11834148 228.85168545 C34.40134004 228.85263608 39.68432663 228.85674713 44.9673214 228.8630867 C59.94906915 228.88069855 74.93078826 228.88992569 89.91254643 228.88842575 C90.72008043 228.88834584 91.52761442 228.88826593 92.35961914 228.88818359 C93.57240098 228.88806095 93.57240098 228.88806095 94.80968346 228.88793583 C107.91165961 228.887123 121.01352077 228.90625996 134.11546365 228.93446033 C147.57185644 228.9631948 161.02819316 228.9770003 174.48461741 228.97527277 C182.03800512 228.97460905 189.59127229 228.98009338 197.14463234 229.00162888 C203.57603363 229.01984815 210.00725975 229.024182 216.43867568 229.01061003 C219.71874947 229.00408391 222.99841783 229.00612737 226.2784729 229.02131653 C229.83807414 229.03673255 233.39679313 229.02748362 236.95637512 229.01205444 C237.98799973 229.02234157 239.01962433 229.0326287 240.08251029 229.04322755 C246.9159306 228.97778015 252.63483024 227.91824032 257.73289233 223.07029092 C262.26279415 217.87191565 263.46057496 214.32171811 263.47163391 207.47122192 C263.47545946 206.76149951 263.47928501 206.05177709 263.48322648 205.32054794 C263.49354551 202.94230168 263.48956645 200.56429734 263.4855957 198.18603516 C263.48994282 196.48091407 263.49512597 194.77579493 263.50108337 193.07067871 C263.51448548 188.43840707 263.51505064 183.80621695 263.51252007 179.17392969 C263.51145106 175.30711709 263.51633201 171.44032102 263.5211255 167.57351196 C263.53222513 158.45052536 263.53265569 149.32757993 263.52661133 140.20458984 C263.52057182 130.79332657 263.53288093 121.38221281 263.5541814 111.97097504 C263.57179629 103.89102765 263.57779888 95.81112784 263.57454365 87.73116195 C263.57273028 82.9053293 263.57537225 78.07960327 263.58925819 73.25378799 C263.60182988 68.71474708 263.59989868 64.17593918 263.58684731 59.63690186 C263.58448044 57.97203366 263.58722017 56.30714909 263.59547043 54.64229965 C263.60593066 52.36723001 263.59784365 50.09294326 263.5851593 47.81790161 C263.58532704 46.54549181 263.58549479 45.27308201 263.58566761 43.96211433 C262.78659223 36.6169771 258.75324982 32.42299993 253.23596668 27.89769745 C248.62136455 25.79236187 244.20072565 26.09781417 239.18547058 26.12316895 C238.05978253 26.11707784 236.93409448 26.11098674 235.77429467 26.10471106 C231.99420325 26.08803364 228.21444693 26.0928638 224.43432617 26.09765625 C221.72738068 26.09195643 219.02045553 26.08182632 216.31352234 26.07199097 C209.7187819 26.05093464 203.12412938 26.04639626 196.5293593 26.04817885 C191.16817053 26.04948652 185.80700919 26.0456821 180.44582558 26.03825378 C178.90147108 26.03615458 177.35711658 26.03405698 175.81276208 26.03196096 C175.04408287 26.03091744 174.27540366 26.02987391 173.48343114 26.02879876 C158.9445921 26.00989516 144.40580352 26.01094679 129.86695728 26.01776809 C116.57095549 26.02334215 103.27514646 26.00252424 89.97918972 25.96940762 C76.32390634 25.93566031 62.66871527 25.92050368 49.01338941 25.92512465 C41.34819714 25.92736848 33.68318298 25.92213899 26.01802635 25.89723206 C19.49143616 25.87620528 12.96512172 25.87264026 6.43852016 25.89153165 C3.10967919 25.90068207 -0.21822767 25.89913872 -3.54709625 25.88117599 C-7.1594158 25.86302877 -10.77036679 25.87570163 -14.38264465 25.89611816 C-15.42983305 25.88360032 -16.47702145 25.87108247 -17.55594283 25.85818529 C-25.77241005 25.95774596 -31.11471589 28.08892862 -36.2265625 34.64257812 Z " fill="#FFFFFF" transform="translate(143.7890625,74.482421875)"/>
<path d="M0 0 C0.33 0 0.66 0 1 0 C1 38.94 1 77.88 1 118 C-66.67600373 118.0806627 -66.67600373 118.0806627 -94.87890625 118.09765625 C-101.33479828 118.10157223 -107.79069021 118.10561326 -114.24658203 118.10986328 C-115.05576698 118.11039078 -115.86495193 118.11091828 -116.69865763 118.11146176 C-129.77683258 118.12016972 -142.85499002 118.13594249 -155.93315457 118.15430559 C-169.34641032 118.17298267 -182.75965689 118.18411207 -196.17292511 118.18817699 C-204.45528368 118.19092661 -212.73759276 118.19962326 -221.0199361 118.21583293 C-226.6929099 118.22637279 -232.36585798 118.22960746 -238.03884088 118.22700275 C-241.31600876 118.22571676 -244.59307116 118.22882185 -247.87022781 118.23841095 C-251.41663801 118.24828365 -254.96283219 118.24599709 -258.50924683 118.24050903 C-260.07634236 118.24924756 -260.07634236 118.24924756 -261.67509639 118.25816262 C-262.6195953 118.25418052 -263.5640942 118.25019842 -264.53721428 118.24609566 C-265.35665075 118.2468551 -266.17608722 118.24761454 -267.02035511 118.24839699 C-269 118 -269 118 -271 116 C-274.20963046 106.5635902 -275.14728681 95.26806791 -271 86 C-261.8120744 71.89761878 -244.34585427 53.43768631 -229 46 C-222.92638974 45.31426981 -218.91448508 46.1851029 -214 50 C-212.19977984 51.66047704 -210.49647285 53.38160842 -208.8046875 55.15234375 C-206.39148017 57.6230084 -203.80110509 59.84751493 -201.18359375 62.09765625 C-197.82537699 65.02332989 -194.56607504 68.05750064 -191.296875 71.08203125 C-188.12620018 73.72965257 -186.44518266 75.06578512 -182.23553467 74.87416077 C-178.16000737 73.77305494 -175.99310312 71.64773368 -173.15332031 68.68920898 C-172.60279999 68.13620621 -172.05227966 67.58320343 -171.4850769 67.01344299 C-169.67091797 65.18562784 -167.87491927 63.34096759 -166.078125 61.49609375 C-164.81153147 60.21507746 -163.54366769 58.93531599 -162.27459717 57.65675354 C-158.93366422 54.28540777 -155.60712184 50.90023602 -152.28430176 47.51104736 C-146.98434739 42.10884665 -141.66525191 36.72556709 -136.34169769 31.34663582 C-134.49647772 29.47750817 -132.65884396 27.60117502 -130.82208252 25.72373962 C-112.32580855 6.91009612 -112.32580855 6.91009612 -103.75 6.6875 C-102.81671875 6.65011719 -101.8834375 6.61273438 -100.921875 6.57421875 C-94.69030983 7.48229442 -90.35380688 12.31393038 -85.9375 16.5 C-84.7943577 17.5691033 -83.65112593 18.63811095 -82.5078125 19.70703125 C-81.92805664 20.25182129 -81.34830078 20.79661133 -80.75097656 21.35791016 C-77.95202943 23.98280118 -75.13283476 26.58563006 -72.3125 29.1875 C-71.77705566 29.68161377 -71.24161133 30.17572754 -70.68994141 30.68481445 C-67.24125689 33.86395511 -63.78496679 37.0343405 -60.3125 40.1875 C-59.52488281 40.90292969 -58.73726562 41.61835938 -57.92578125 42.35546875 C-55.5356751 44.39651274 -54.39590809 44.95501044 -51.25 45.3125 C-44.54900166 44.66817324 -40.06180959 39.33061732 -35.5703125 34.73046875 C-34.97628632 34.131241 -34.38226013 33.53201324 -33.77023315 32.91462708 C-31.88362031 31.01032462 -30.00385789 29.09945168 -28.125 27.1875 C-25.65186086 24.67758674 -23.17549951 22.17091798 -20.6953125 19.66796875 C-20.10430252 19.07136948 -19.51329254 18.4747702 -18.90437317 17.86009216 C-15.26093215 14.20398479 -11.54856241 10.6848075 -7.58911133 7.36816406 C-5.82170657 5.84649617 -4.19583909 4.22662979 -2.5625 2.5625 C-1.716875 1.716875 -0.87125 0.87125 0 0 Z " fill="#FFFFFF" transform="translate(390,171)"/>
<path d="M0 0 C3.5626581 2.79235365 5.8761886 5.50356581 7.3125 9.8125 C7.3125 34.8925 7.3125 59.9725 7.3125 85.8125 C-78.4875 85.8125 -164.2875 85.8125 -252.6875 85.8125 C-252.6875 10.8125 -252.6875 10.8125 -248.6875 2.8125 C-244.39764881 -0.23806084 -240.88303189 -0.74416413 -235.6875 -0.1875 C-231.52992447 1.41156751 -228.9752886 2.95938235 -226.6875 6.8125 C-221.09981513 23.57555461 -225.6875 42.14268896 -225.6875 59.8125 C-157.7075 59.8125 -89.7275 59.8125 -19.6875 59.8125 C-19.6875 42.9825 -19.6875 26.1525 -19.6875 8.8125 C-15.55875159 0.55500318 -9.52913238 -4.21054686 0 0 Z " fill="#FFFFFF" transform="translate(378.6875,359.1875)"/>
<path d="M0 0 C6.53634763 5.33711691 10.89074579 11.95470912 12.55078125 20.3046875 C13.31360288 27.97691275 12.19704639 34.56976898 7.69921875 40.91796875 C1.93432544 47.79306236 -3.79996825 52.59048841 -12.87890625 53.73828125 C-22.61891217 54.08389436 -29.18278801 52.16004109 -36.69921875 46.0546875 C-43.28771528 39.9124238 -46.90880548 33.03306812 -47.76171875 23.9921875 C-46.99154707 14.90416173 -44.04348682 7.72735752 -37.44921875 1.3046875 C-25.56174464 -7.40060123 -12.45584854 -8.62175162 0 0 Z " fill="#FFFFFF" transform="translate(201.44921875,148.6953125)"/>
</svg>
