<?xml version="1.0" encoding="UTF-8"?>
<svg version="1.1" xmlns="http://www.w3.org/2000/svg" width="512" height="512">
<path d="M0 0 C168.96 0 337.92 0 512 0 C512 168.96 512 337.92 512 512 C343.04 512 174.08 512 0 512 C0 343.04 0 174.08 0 0 Z " fill="#333333" transform="translate(0,0)"/>
<path d="M0 0 C0.92876953 -0.01160156 1.85753906 -0.02320313 2.81445312 -0.03515625 C9.05204534 -0.0088927 14.17214974 1.01482115 19.9375 3.375 C20.83339844 3.73980469 21.72929687 4.10460937 22.65234375 4.48046875 C36.48163439 11.21282992 46.61303835 21.70740583 52.2890625 36.01953125 C55.97405004 49.40535949 55.61879436 66.26515722 49.2734375 78.61328125 C41.00938535 92.88605658 29.42882114 102.89123509 13.4609375 107.7109375 C-1.64058974 110.55712334 -15.82686606 108.78040039 -28.9375 100.5 C-30.32979339 99.48156317 -31.70553769 98.44005762 -33.0625 97.375 C-33.74828125 96.86324219 -34.4340625 96.35148437 -35.140625 95.82421875 C-40.88266965 91.23277465 -44.39081543 85.67728389 -48.0625 79.375 C-48.5884375 78.54613281 -49.114375 77.71726562 -49.65625 76.86328125 C-55.51075077 66.50406738 -55.93618814 51.67022733 -53.18359375 40.23828125 C-48.70496338 24.54158065 -38.26246132 12.98510406 -24.34765625 4.8828125 C-16.24610897 1.16438533 -8.88048183 -0.1113928 0 0 Z " fill="#FAFAFA" transform="translate(256.0625,135.625)"/>
<path d="M0 0 C0 29.37 0 58.74 0 89 C-13.98671182 89 -23.01219372 85.84908675 -33 76 C-41.62921795 66.15729827 -45.92605073 54.78967797 -45.4140625 41.70703125 C-43.82302374 27.46273142 -37.41720164 17.24326289 -26.6953125 7.98046875 C-18.24231457 1.76935288 -10.44755998 0 0 0 Z " fill="#363636" transform="translate(256,145)"/>
<path d="M0 0 C4.62 0 9.24 0 14 0 C14 20.79 14 41.58 14 63 C34.79 63 55.58 63 77 63 C77 67.62 77 72.24 77 77 C51.59 77 26.18 77 0 77 C0 51.59 0 26.18 0 0 Z " fill="#E85A26" transform="translate(128,241)"/>
<path d="M0 0 C4.62 0 9.24 0 14 0 C14 25.41 14 50.82 14 77 C-11.41 77 -36.82 77 -63 77 C-63 72.71 -63 68.42 -63 64 C-42.21 64 -21.42 64 0 64 C0 42.88 0 21.76 0 0 Z " fill="#ED5B26" transform="translate(371,241)"/>
<path d="M0 0 C25.41 0 50.82 0 77 0 C77 25.08 77 50.16 77 76 C72.38 76 67.76 76 63 76 C63 55.21 63 34.42 63 13 C42.21 13 21.42 13 0 13 C0 8.71 0 4.42 0 0 Z " fill="#ED5B26" transform="translate(308,62)"/>
<path d="M0 0 C25.41 0 50.82 0 77 0 C77 4.29 77 8.58 77 13 C56.21 13 35.42 13 14 13 C14 33.79 14 54.58 14 76 C9.38 76 4.76 76 0 76 C0 50.92 0 25.84 0 0 Z " fill="#EB5B26" transform="translate(128,62)"/>
<path d="M0 0 C2.31 0 4.62 0 7 0 C10.79175794 8.16686326 13.89184291 16.55617323 17 25 C19.88145544 18.01367787 22.46799778 10.94498472 24.94921875 3.80859375 C26 1 26 1 27 0 C29.31 0 31.62 0 34 0 C34 16.5 34 33 34 50 C31.69 50 29.38 50 27 50 C26.67 41.09 26.34 32.18 26 23 C24.22741954 28.54245554 24.22741954 28.54245554 22.5012207 34.09936523 C21.79852079 36.19031998 21.11046969 38.09101531 20 40 C17.29296875 41.03515625 17.29296875 41.03515625 15 41 C14.3897957 39.54418264 13.78728154 38.08514232 13.1875 36.625 C12.85105469 35.81289063 12.51460937 35.00078125 12.16796875 34.1640625 C10.57406995 29.84614267 9.32257916 25.40859721 8 21 C7.67 30.57 7.34 40.14 7 50 C4.69 50 2.38 50 0 50 C0 33.5 0 17 0 0 Z " fill="#FA6433" transform="translate(211,380)"/>
<path d="M0 0 C3.6875 0.375 3.6875 0.375 5.88476562 2.49389648 C8.01868018 5.90428729 8.20267147 7.85128098 8.21875 11.84765625 C8.22390625 13.07677734 8.2290625 14.30589844 8.234375 15.57226562 C8.21890625 16.84779297 8.2034375 18.12332031 8.1875 19.4375 C8.20296875 20.71689453 8.2184375 21.99628906 8.234375 23.31445312 C8.22921875 24.54228516 8.2240625 25.77011719 8.21875 27.03515625 C8.21423828 28.15543213 8.20972656 29.27570801 8.20507812 30.42993164 C7.57324517 34.02512075 6.59308007 35.2194244 3.6875 37.375 C0.0625 37.75 0.0625 37.75 -3.3125 37.375 C-3.9725 36.715 -4.6325 36.055 -5.3125 35.375 C-5.6425 40.655 -5.9725 45.935 -6.3125 51.375 C-8.6225 51.375 -10.9325 51.375 -13.3125 51.375 C-13.3125 34.875 -13.3125 18.375 -13.3125 1.375 C-10.3125 1.375 -7.3125 1.375 -4.3125 1.375 C-3.3125 0.375 -3.3125 0.375 0 0 Z " fill="#FC6533" transform="translate(295.3125,393.625)"/>
<path d="M0 0 C3.625 0.25 3.625 0.25 5.5625 1.75 C5.913125 2.245 6.26375 2.74 6.625 3.25 C7.140625 2.755 7.65625 2.26 8.1875 1.75 C11.5488388 -0.31851618 13.74459911 -0.23505011 17.625 0.25 C19.81933594 1.81542969 19.81933594 1.81542969 21.625 4.25 C22.07910156 7.64160156 22.07910156 7.64160156 22.015625 11.640625 C22.00996521 12.34523865 22.00430542 13.04985229 21.99847412 13.77581787 C21.97615078 16.01791428 21.92596754 18.25838988 21.875 20.5 C21.85492952 22.02341435 21.8366797 23.54685386 21.8203125 25.0703125 C21.77630118 28.7973983 21.70730372 32.52354087 21.625 36.25 C19.315 36.25 17.005 36.25 14.625 36.25 C14.295 27.34 13.965 18.43 13.625 9.25 C12.305 8.92 10.985 8.59 9.625 8.25 C7.82105125 10.05394875 8.38794211 12.81677799 8.30859375 15.25390625 C8.26669922 16.46884766 8.22480469 17.68378906 8.18164062 18.93554688 C8.14232422 20.21494141 8.10300781 21.49433594 8.0625 22.8125 C8.01931641 24.09576172 7.97613281 25.37902344 7.93164062 26.70117188 C7.825152 29.88399853 7.72314038 33.06690674 7.625 36.25 C5.315 36.25 3.005 36.25 0.625 36.25 C0.295 27.34 -0.035 18.43 -0.375 9.25 C-1.695 8.92 -3.015 8.59 -4.375 8.25 C-6.17894875 10.05394875 -5.61205789 12.81677799 -5.69140625 15.25390625 C-5.73330078 16.46884766 -5.77519531 17.68378906 -5.81835938 18.93554688 C-5.85767578 20.21494141 -5.89699219 21.49433594 -5.9375 22.8125 C-5.98068359 24.09576172 -6.02386719 25.37902344 -6.06835938 26.70117188 C-6.174848 29.88399853 -6.27685962 33.06690674 -6.375 36.25 C-8.685 36.25 -10.995 36.25 -13.375 36.25 C-13.375 24.7 -13.375 13.15 -13.375 1.25 C-10.375 1.25 -7.375 1.25 -4.375 1.25 C-3.375 0.25 -3.375 0.25 0 0 Z " fill="#FD6533" transform="translate(166.375,393.75)"/>
<path d="M0 0 C2.87029869 1.79393668 4.49131638 2.98263276 6 6 C6.08573394 8.25120742 6.10712188 10.50499303 6.09765625 12.7578125 C6.0962413 13.42086395 6.09482635 14.08391541 6.09336853 14.76705933 C6.08776754 16.88641863 6.075215 19.00567259 6.0625 21.125 C6.05748512 22.56119639 6.05292219 23.99739444 6.04882812 25.43359375 C6.03779782 28.95576345 6.02053259 32.47787145 6 36 C3 36 0 36 -3 36 C-3.99 36.495 -3.99 36.495 -5 37 C-8.85633638 37.51417818 -10.5518122 37.28255318 -13.875 35.1875 C-16.96056251 30.55915623 -16.90210586 26.41263517 -16 21 C-14.19881522 17.99802536 -13.09667268 16.54833634 -10 15 C-8.45976004 14.93049459 -6.91665012 14.91547643 -5.375 14.9375 C-4.14910156 14.95103516 -4.14910156 14.95103516 -2.8984375 14.96484375 C-1.95871094 14.98224609 -1.95871094 14.98224609 -1 15 C-1.66 12.69 -2.32 10.38 -3 8 C-5.47266765 8.34444881 -5.47266765 8.34444881 -8 9 C-8.33 9.66 -8.66 10.32 -9 11 C-11.31 11 -13.62 11 -16 11 C-15.67641073 7.44051799 -15.3899006 5.46536524 -13.0625 2.6875 C-9.00052708 -0.63593239 -5.09604541 -0.66010951 0 0 Z " fill="#F86433" transform="translate(268,394)"/>
<path d="M0 0 C3.86134614 0.04843983 6.16579789 0.80078068 9.25 3.25 C11.70391569 6.93087353 11.47802759 9.69355588 11.375 13.9375 C11.36597656 14.63939453 11.35695313 15.34128906 11.34765625 16.06445312 C11.32413704 17.79311525 11.28826713 19.52160145 11.25 21.25 C6.63 21.25 2.01 21.25 -2.75 21.25 C-2.42 24.22 -2.09 27.19 -1.75 30.25 C1.97614153 29.13145414 1.97614153 29.13145414 4.25 26.25 C6.56 26.25 8.87 26.25 11.25 26.25 C10.98991338 29.97790821 10.40299098 32.03007546 8.25 35.125 C4.7049942 37.63604577 2.66500595 37.98032533 -1.59375 37.74609375 C-5.07749998 36.94457881 -6.66918221 35.0460989 -8.75 32.25 C-10.31841077 27.5447677 -10.05839195 22.80399567 -10.125 17.875 C-10.16238281 16.8334375 -10.19976562 15.791875 -10.23828125 14.71875 C-10.32493022 7.18991687 -10.32493022 7.18991687 -8.64550781 4.44433594 C-7.2890625 3.0859375 -7.2890625 3.0859375 -4.75 1.25 C-3.75 0.25 -3.75 0.25 0 0 Z " fill="#F8F8F8" transform="translate(405.75,393.75)"/>
<path d="M0 0 C2.31 0 4.62 0 7 0 C7.33 8.91 7.66 17.82 8 27 C9.65 27.33 11.3 27.66 13 28 C13.33 18.76 13.66 9.52 14 0 C16.31 0 18.62 0 21 0 C21 11.55 21 23.1 21 35 C18 35 15 35 12 35 C11.01 35.495 11.01 35.495 10 36 C6.5625 36.375 6.5625 36.375 3 36 C-0.25394756 32.0496769 -0.35468968 28.7298639 -0.29296875 23.73046875 C-0.28872391 23.04946609 -0.28447906 22.36846344 -0.28010559 21.66682434 C-0.2634061 19.50663541 -0.22577312 17.34740358 -0.1875 15.1875 C-0.17244174 13.71681042 -0.15875534 12.24610611 -0.14648438 10.77539062 C-0.11353214 7.18328643 -0.06181173 3.59173674 0 0 Z " fill="#FC6533" transform="translate(124,395)"/>
<path d="M0 0 C2.31 0 4.62 0 7 0 C7 14.19 7 28.38 7 43 C11.95 43 16.9 43 22 43 C22 45.31 22 47.62 22 50 C14.74 50 7.48 50 0 50 C0 33.5 0 17 0 0 Z " fill="#FDFDFD" transform="translate(334,380)"/>
<path d="M0 0 C2.31 0 4.62 0 7 0 C7 14.19 7 28.38 7 43 C11.95 43 16.9 43 22 43 C22 45.31 22 47.62 22 50 C14.74 50 7.48 50 0 50 C0 33.5 0 17 0 0 Z " fill="#FD6533" transform="translate(95,380)"/>
<path d="M0 0 C2.31 0 4.62 0 7 0 C7 3.63 7 7.26 7 11 C8.65 11 10.3 11 12 11 C12 12.98 12 14.96 12 17 C10.35 17 8.7 17 7 17 C7.33 23.93 7.66 30.86 8 38 C9.32 38.33 10.64 38.66 12 39 C12 41.31 12 43.62 12 46 C8.31416662 46.28908497 5.68243549 46.30591936 2.28125 44.78125 C-1.49787228 40.17382695 -0.52032387 34.99872806 -0.3125 29.25 C-0.28994141 28.07566406 -0.26738281 26.90132813 -0.24414062 25.69140625 C-0.1852296 22.79298363 -0.10301631 19.89713573 0 17 C-1.32 17 -2.64 17 -4 17 C-4 15.02 -4 13.04 -4 11 C-2.68 11 -1.36 11 0 11 C0 7.37 0 3.74 0 0 Z " fill="#F8F8F8" transform="translate(379,384)"/>
<path d="M0 0 C2.64 0 5.28 0 8 0 C8 2.97 8 5.94 8 9 C10.97 9 13.94 9 17 9 C17 11.31 17 13.62 17 16 C14.03 16 11.06 16 8 16 C8 19.3 8 22.6 8 26 C5.36 26 2.72 26 0 26 C0 22.7 0 19.4 0 16 C-3.3 16 -6.6 16 -10 16 C-10 13.69 -10 11.38 -10 9 C-6.7 9 -3.4 9 0 9 C0 6.03 0 3.06 0 0 Z " fill="#3C3C3C" transform="translate(278,177)"/>
<path d="M0 0 C1.8125 1.125 1.8125 1.125 3 3 C3.4375 5.9375 3.4375 5.9375 3 9 C-0.2144149 13.23941965 -4.0335824 14.32844504 -8.9375 15.75 C-9.99227539 16.08064453 -9.99227539 16.08064453 -11.06835938 16.41796875 C-14.77939689 17.53788822 -18.11851854 18.38814815 -22 18 C-23.8125 16.875 -23.8125 16.875 -25 15 C-25.5 12.0625 -25.5 12.0625 -25 9 C-21.32298059 5.39958516 -17.32424753 3.7689215 -12.5 2.25 C-11.84902344 2.02957031 -11.19804687 1.80914062 -10.52734375 1.58203125 C-6.93356473 0.41314555 -3.78116039 -0.37191741 0 0 Z " fill="#F3F3F3" transform="translate(346,155)"/>
<path d="M0 0 C2.87522264 0.85238029 5.64955306 1.89833224 8.4375 3 C9.15615234 3.27328125 9.87480469 3.5465625 10.61523438 3.828125 C15.84173387 5.84173387 15.84173387 5.84173387 17 7 C17.45985401 13.2080292 17.45985401 13.2080292 15.875 15.9375 C13.05969818 17.5328377 11.20400664 17.36969307 8 17 C6.29461912 16.32428305 4.58950221 15.64079281 2.93359375 14.8515625 C0.74640023 13.88831364 -1.45866863 13.23838705 -3.75 12.5625 C-6.50346111 11.65718825 -7.88860174 11.10127115 -10.0625 9.125 C-11.22251333 6.49563645 -11.43749091 4.84369088 -11 2 C-8.61572546 -2.47051475 -4.22023898 -0.84662167 0 0 Z " fill="#F3F3F3" transform="translate(174,156)"/>
<path d="M0 0 C1.66479492 1.19726562 1.66479492 1.19726562 3 3 C3.37231445 5.40429688 3.37231445 5.40429688 3.36328125 8.21875 C3.36263672 9.23324219 3.36199219 10.24773437 3.36132812 11.29296875 C3.34521484 12.35128906 3.32910156 13.40960938 3.3125 14.5 C3.31572266 15.55832031 3.31894531 16.61664063 3.32226562 17.70703125 C3.26710975 25.59933537 3.26710975 25.59933537 1 29 C-5.06221343 29.66133237 -5.06221343 29.66133237 -7.69775391 27.80273438 C-9.45160583 25.37482987 -9.38758317 23.76050471 -9.3984375 20.78125 C-9.40230469 19.76675781 -9.40617188 18.75226563 -9.41015625 17.70703125 C-9.39855469 16.64871094 -9.38695312 15.59039062 -9.375 14.5 C-9.38660156 13.44167969 -9.39820313 12.38335937 -9.41015625 11.29296875 C-9.40435547 9.77123047 -9.40435547 9.77123047 -9.3984375 8.21875 C-9.39505371 7.28998047 -9.39166992 6.36121094 -9.38818359 5.40429688 C-9 3 -9 3 -7.66259766 1.19726562 C-5.07824048 -0.66377513 -3.08645682 -0.3858071 0 0 Z " fill="#F5F5F5" transform="translate(259,258)"/>
<path d="M0 0 C1.66479492 1.19726562 1.66479492 1.19726562 3 3 C3.37231445 5.40429688 3.37231445 5.40429688 3.36328125 8.21875 C3.36263672 9.23324219 3.36199219 10.24773437 3.36132812 11.29296875 C3.34521484 12.35128906 3.32910156 13.40960938 3.3125 14.5 C3.31572266 15.55832031 3.31894531 16.61664063 3.32226562 17.70703125 C3.26710975 25.59933537 3.26710975 25.59933537 1 29 C-5.06221343 29.66133237 -5.06221343 29.66133237 -7.69775391 27.80273438 C-9.45160583 25.37482987 -9.38758317 23.76050471 -9.3984375 20.78125 C-9.40230469 19.76675781 -9.40617188 18.75226563 -9.41015625 17.70703125 C-9.39855469 16.64871094 -9.38695312 15.59039062 -9.375 14.5 C-9.38660156 13.44167969 -9.39820313 12.38335937 -9.41015625 11.29296875 C-9.40435547 9.77123047 -9.40435547 9.77123047 -9.3984375 8.21875 C-9.39505371 7.28998047 -9.39166992 6.36121094 -9.38818359 5.40429688 C-9 3 -9 3 -7.66259766 1.19726562 C-5.07824048 -0.66377513 -3.08645682 -0.3858071 0 0 Z " fill="#F5F5F5" transform="translate(259,92)"/>
<path d="M0 0 C2.79296875 0.6015625 2.79296875 0.6015625 5.79296875 2.6015625 C6.54169905 7.08835674 5.95712543 9.81596249 3.45703125 13.49609375 C2.46091653 14.81502342 1.44733699 16.12091865 0.41796875 17.4140625 C-0.08992188 18.08115234 -0.5978125 18.74824219 -1.12109375 19.43554688 C-3.05668003 21.95944951 -4.95583945 24.3503707 -7.20703125 26.6015625 C-10.14453125 26.9765625 -10.14453125 26.9765625 -13.20703125 26.6015625 C-15.14453125 24.9765625 -15.14453125 24.9765625 -16.20703125 22.6015625 C-16.02861552 16.60679385 -12.99089903 12.83560544 -9.51953125 8.2265625 C-9.00197266 7.49050781 -8.48441406 6.75445312 -7.95117188 5.99609375 C-4.0506747 0.75980987 -4.0506747 0.75980987 0 0 Z " fill="#F6F6F6" transform="translate(212.20703125,243.3984375)"/>
<path d="M0 0 C2.11007745 2.13656378 3.64818305 3.94273837 5.3125 6.375 C5.95541992 7.26058594 5.95541992 7.26058594 6.61132812 8.1640625 C12.57993855 16.43258989 12.57993855 16.43258989 12 22 C10.875 23.875 10.875 23.875 9 25 C6.3125 25.578125 6.3125 25.578125 3 25 C0.28286647 22.60938895 -1.75357642 19.79315733 -3.875 16.875 C-4.46796875 16.11445313 -5.0609375 15.35390625 -5.671875 14.5703125 C-8.24206377 11.13549802 -9.88542183 8.87577574 -10.44921875 4.56640625 C-10 2 -10 2 -8.9375 0.0625 C-5.71663421 -1.70378124 -3.47323314 -0.90304062 0 0 Z " fill="#F7F7F7" transform="translate(304,245)"/>
<path d="M0 0 C3.0625 0.25 3.0625 0.25 6.0625 2.25 C6.65969213 5.28984263 6.55315965 7.33973844 5.06787109 10.09521484 C3.69780885 12.10549308 2.25135577 14.02341339 0.75 15.9375 C0.00073242 16.93233398 0.00073242 16.93233398 -0.76367188 17.94726562 C-6.96557971 26.10421196 -6.96557971 26.10421196 -10.4375 26.625 C-12.9375 26.25 -12.9375 26.25 -14.75 25.125 C-16.54978386 22.28323601 -16.34449679 20.5912498 -15.9375 17.25 C-14.42567525 14.44553016 -12.52767774 12.00068867 -10.5625 9.5 C-9.80066406 8.49259766 -9.80066406 8.49259766 -9.0234375 7.46484375 C-3.57017145 0.30384438 -3.57017145 0.30384438 0 0 Z " fill="#F7F7F7" transform="translate(309.9375,109.75)"/>
<path d="M0 0 C4.19809139 0.57620862 5.68213207 2.26312374 8.1875 5.4375 C8.87714844 6.27410156 9.56679687 7.11070313 10.27734375 7.97265625 C16.7125114 16.19474216 16.7125114 16.19474216 16.875 20.4375 C16.1875 23.4375 16.1875 23.4375 15 25.375 C12.5066439 26.83662254 11.04677595 26.81081793 8.1875 26.4375 C6.16015625 24.56640625 6.16015625 24.56640625 4.25 22 C3.57195312 21.08992188 2.89390625 20.17984375 2.1953125 19.2421875 C1.53273437 18.31664063 0.87015625 17.39109375 0.1875 16.4375 C-0.43382812 15.61507812 -1.05515625 14.79265625 -1.6953125 13.9453125 C-5.87453719 8.17215095 -5.87453719 8.17215095 -5.58984375 4.80078125 C-4.46425842 1.3787756 -3.57524317 0.55614894 0 0 Z " fill="#F7F7F7" transform="translate(201.8125,109.5625)"/>
<path d="M0 0 C0.99 0.66 1.98 1.32 3 2 C3.5 5.4375 3.5 5.4375 3 9 C-0.28978618 11.97141977 -4.6857513 12.99273594 -8.86328125 14.3046875 C-11.12310874 15.00017125 -11.12310874 15.00017125 -13.6875 16.1875 C-16.66452075 17.23348026 -18.86998031 17.40826344 -22 17 C-24.35210784 14.88310295 -24.91810953 13.55958485 -25.375 10.4375 C-24.90537678 7.38494909 -24.4358885 6.87897562 -22 5 C-19.38923308 3.98928871 -16.85967071 3.11439348 -14.1875 2.3125 C-13.48818359 2.08755859 -12.78886719 1.86261719 -12.06835938 1.63085938 C-7.95803536 0.36584852 -4.3448838 -0.43765983 0 0 Z " fill="#F7F7F7" transform="translate(188,207)"/>
<path d="M0 0 C7.8923979 0.40130837 18.49234937 1.55406873 24.890625 6.4453125 C26.68809304 8.9642994 26.37336631 11.01306949 26 14 C24.71484375 15.6875 24.71484375 15.6875 23 17 C15.00884141 17 7.21959845 14.31737193 0 11 C-2 8 -2 8 -1.6875 4.375 C-1 1 -1 1 0 0 Z " fill="#F8F8F8" transform="translate(323,207)"/>
<path d="M0 0 C2.31 0 4.62 0 7 0 C7 11.55 7 23.1 7 35 C4.69 35 2.38 35 0 35 C0 23.45 0 11.9 0 0 Z " fill="#FFFFFF" transform="translate(363,395)"/>
<path d="M0 0 C2.31 0 4.62 0 7 0 C7 11.55 7 23.1 7 35 C4.69 35 2.38 35 0 35 C0 23.45 0 11.9 0 0 Z " fill="#FF6633" transform="translate(196,395)"/>
<path d="M0 0 C9.24 0 18.48 0 28 0 C28 2.64 28 5.28 28 8 C18.76 8 9.52 8 0 8 C0 5.36 0 2.72 0 0 Z " fill="#F1F1F1" transform="translate(220,186)"/>
<path d="M0 0 C3.53571429 0.53571429 3.53571429 0.53571429 5 2 C5.24966567 5.1382345 5.18521791 8.29049613 5.1875 11.4375 C5.19974609 12.32244141 5.21199219 13.20738281 5.22460938 14.11914062 C5.22654297 14.96541016 5.22847656 15.81167969 5.23046875 16.68359375 C5.23457764 17.46275146 5.23868652 18.24190918 5.24291992 19.04467773 C5 21 5 21 3 23 C0.9375 22.75 0.9375 22.75 -1 22 C-2.70913373 18.58173253 -2.18458479 14.76645237 -2.1875 11 C-2.19974609 10.16726563 -2.21199219 9.33453125 -2.22460938 8.4765625 C-2.22654297 7.67992187 -2.22847656 6.88328125 -2.23046875 6.0625 C-2.23457764 5.33160156 -2.23868652 4.60070312 -2.24291992 3.84765625 C-2 2 -2 2 0 0 Z " fill="#363333" transform="translate(291,401)"/>
<path d="M0 0 C5.61 0 11.22 0 17 0 C17 2.31 17 4.62 17 7 C11.39 7 5.78 7 0 7 C0 4.69 0 2.38 0 0 Z " fill="#E9E9E9" transform="translate(310,405)"/>
<path d="M0 0 C0.94875 0.04125 1.8975 0.0825 2.875 0.125 C3 6.875 3 6.875 1.875 9.125 C-0.105 9.125 -2.085 9.125 -4.125 9.125 C-4.75 5.75 -4.75 5.75 -5.125 2.125 C-3.125 0.125 -3.125 0.125 0 0 Z " fill="#3A3433" transform="translate(264.125,414.875)"/>
<path d="M0 0 C3.53571429 0.53571429 3.53571429 0.53571429 5 2 C5.04080783 3.99958364 5.04254356 6.00045254 5 8 C2.69 8 0.38 8 -2 8 C-2.125 5.125 -2.125 5.125 -2 2 C-1.34 1.34 -0.68 0.68 0 0 Z " fill="#363636" transform="translate(405,401)"/>
<path d="M0 0 C2.31 0 4.62 0 7 0 C7 2.31 7 4.62 7 7 C4.69 7 2.38 7 0 7 C0 4.69 0 2.38 0 0 Z " fill="#FFFFFF" transform="translate(363,381)"/>
<path d="M0 0 C2.31 0 4.62 0 7 0 C7 2.31 7 4.62 7 7 C4.69 7 2.38 7 0 7 C0 4.69 0 2.38 0 0 Z " fill="#FF6633" transform="translate(196,381)"/>
</svg>
