<?xml version="1.0" encoding="UTF-8"?>
<svg version="1.1" xmlns="http://www.w3.org/2000/svg" width="512" height="512">
<path d="M0 0 C22.15067587 -0.60833843 44.38657997 7.02020393 60.73046875 22.05859375 C77.87763467 38.56264409 88.50143437 59.21069168 89.0234375 83.28808594 C89.19914991 107.08833235 82.36178187 127.05709282 66.73046875 145.12109375 C66.158125 145.79398438 65.58578125 146.466875 64.99609375 147.16015625 C52.58345831 160.61741942 32.07019006 171.18479993 13.83056641 172.2980957 C-13.98732004 172.83313704 -13.98732004 172.83313704 -26.26953125 168.12109375 C-27.30464844 167.75886719 -28.33976562 167.39664063 -29.40625 167.0234375 C-49.93255037 159.27022545 -66.13541239 143.16233301 -75.64453125 123.62109375 C-85.25895284 101.34178254 -86.57723067 76.35778802 -77.57421875 53.67578125 C-67.86005333 30.94039306 -50.14102009 14.33898092 -27.26953125 5.12109375 C-18.41934059 2.12322045 -9.31338089 0.49692738 0 0 Z M-39.26953125 31.12109375 C-40.6950415 33.97211426 -40.54092645 35.94825864 -40.26953125 39.12109375 C-38.84811223 42.27768874 -38.84811223 42.27768874 -36.796875 45.41015625 C-36.43614395 45.99469574 -36.0754129 46.57923523 -35.70375061 47.18148804 C-34.55054694 49.04439961 -33.3795574 50.89529665 -32.20703125 52.74609375 C-31.44600355 53.965359 -30.68622667 55.1854059 -29.92773438 56.40625 C-28.80444122 58.21417637 -27.68039269 60.0215479 -26.55111694 61.82574463 C-22.99499367 67.5170668 -19.6112237 73.30111906 -16.26953125 79.12109375 C-17.291073 79.09752808 -17.291073 79.09752808 -18.33325195 79.07348633 C-21.41609406 79.01116153 -24.49880369 78.97211117 -27.58203125 78.93359375 C-29.18981445 78.89588867 -29.18981445 78.89588867 -30.83007812 78.85742188 C-31.85810547 78.84775391 -32.88613281 78.83808594 -33.9453125 78.828125 C-34.89317627 78.81241455 -35.84104004 78.7967041 -36.81762695 78.78051758 C-39.30769179 78.92772579 -39.30769179 78.92772579 -41.07495117 80.4519043 C-42.94949805 83.0712129 -42.72421093 85.00329025 -42.26953125 88.12109375 C-39.87615763 90.65100956 -38.46195592 91.10123341 -34.96972656 91.46166992 C-33.05305176 91.43810425 -33.05305176 91.43810425 -31.09765625 91.4140625 C-30.41523865 91.40981766 -29.73282104 91.40557281 -29.02972412 91.40119934 C-26.85925121 91.38446347 -24.68972146 91.34682334 -22.51953125 91.30859375 C-21.04428428 91.29354021 -19.5690227 91.27985297 -18.09375 91.26757812 C-14.48537281 91.23457752 -10.87754415 91.18283142 -7.26953125 91.12109375 C-6.77453125 96.56609375 -6.77453125 96.56609375 -6.26953125 102.12109375 C-7.18766602 102.11062012 -8.10580078 102.10014648 -9.05175781 102.08935547 C-12.46600871 102.0552216 -15.88007763 102.03016965 -19.29443359 102.01123047 C-20.77069972 102.00118784 -22.24694604 101.9875511 -23.72314453 101.97021484 C-25.84803159 101.94588954 -27.9726551 101.93459335 -30.09765625 101.92578125 C-31.37543945 101.91530762 -32.65322266 101.90483398 -33.96972656 101.89404297 C-37.06491426 102.1070146 -38.80171536 102.27360727 -41.26953125 104.12109375 C-42.2703566 107.54352689 -42.2703566 107.54352689 -42.26953125 111.12109375 C-40.54726629 114.36959352 -40.54726629 114.36959352 -37.26953125 115.12109375 C-34.91272912 115.20506532 -32.55359044 115.22837562 -30.1953125 115.21875 C-29.51147995 115.21733505 -28.8276474 115.2159201 -28.12309265 115.21446228 C-25.94269403 115.20887251 -23.76239874 115.19632197 -21.58203125 115.18359375 C-20.10221503 115.17857742 -18.62239719 115.17401475 -17.14257812 115.16992188 C-13.51819568 115.15890646 -9.89387355 115.14164887 -6.26953125 115.12109375 C-6.29047852 115.88776367 -6.31142578 116.65443359 -6.33300781 117.44433594 C-6.41618283 120.91978835 -6.468197 124.39503138 -6.51953125 127.87109375 C-6.55304688 129.07765625 -6.5865625 130.28421875 -6.62109375 131.52734375 C-6.63398438 132.6875 -6.646875 133.84765625 -6.66015625 135.04296875 C-6.68110352 136.1112793 -6.70205078 137.17958984 -6.72363281 138.28027344 C-6.15916456 141.81153824 -5.05737873 142.95504245 -2.26953125 145.12109375 C0.16953126 145.74836796 0.16953126 145.74836796 2.73046875 145.62109375 C3.57609375 145.63140625 4.42171875 145.64171875 5.29296875 145.65234375 C8.5721576 144.93764874 9.648542 143.73083292 11.73046875 141.12109375 C12.27915178 138.22677281 12.27915178 138.22677281 12.12109375 135.04296875 C12.10820312 133.8828125 12.0953125 132.72265625 12.08203125 131.52734375 C12.04851562 130.32078125 12.015 129.11421875 11.98046875 127.87109375 C11.96242188 126.6490625 11.944375 125.42703125 11.92578125 124.16796875 C11.87864975 121.15155297 11.81286288 118.13671884 11.73046875 115.12109375 C12.64860352 115.13156738 13.56673828 115.14204102 14.51269531 115.15283203 C17.92694621 115.1869659 21.34101513 115.21201785 24.75537109 115.23095703 C26.23163722 115.24099966 27.70788354 115.2546364 29.18408203 115.27197266 C31.30896909 115.29629796 33.4335926 115.30759415 35.55859375 115.31640625 C36.83637695 115.32687988 38.11416016 115.33735352 39.43066406 115.34814453 C42.52585176 115.1351729 44.26265286 114.96858023 46.73046875 113.12109375 C47.7312941 109.69866061 47.7312941 109.69866061 47.73046875 106.12109375 C46.00820379 102.87259398 46.00820379 102.87259398 42.73046875 102.12109375 C40.37366662 102.03712218 38.01452794 102.01381188 35.65625 102.0234375 C34.97241745 102.02485245 34.2885849 102.0262674 33.58403015 102.02772522 C31.40363153 102.03331499 29.22333624 102.04586553 27.04296875 102.05859375 C25.56315253 102.06361008 24.08333469 102.06817275 22.60351562 102.07226562 C18.97913318 102.08328104 15.35481105 102.10053863 11.73046875 102.12109375 C12.06046875 98.49109375 12.39046875 94.86109375 12.73046875 91.12109375 C14.1076709 91.14465942 14.1076709 91.14465942 15.51269531 91.16870117 C18.92697824 91.21990245 22.34085179 91.25747854 25.75537109 91.28588867 C27.23167366 91.30095298 28.70793163 91.32140857 30.18408203 91.34741211 C32.30903133 91.38390114 34.43338776 91.40084308 36.55859375 91.4140625 C37.83637695 91.42977295 39.11416016 91.4454834 40.43066406 91.46166992 C43.92289342 91.10123341 45.33709513 90.65100956 47.73046875 88.12109375 C48.18514843 85.00329025 48.41043555 83.0712129 46.53588867 80.4519043 C44.07035979 78.63451445 42.44803135 78.77770873 39.40625 78.828125 C38.37822266 78.83779297 37.35019531 78.84746094 36.29101562 78.85742188 C35.21916016 78.88255859 34.14730469 78.90769531 33.04296875 78.93359375 C31.95951172 78.94712891 30.87605469 78.96066406 29.75976562 78.97460938 C27.0828347 79.00998732 24.40690037 79.05935186 21.73046875 79.12109375 C23.66545948 75.82794634 25.60406823 72.53694042 27.54296875 69.24609375 C28.12522217 68.25480469 28.70747559 67.26351562 29.30737305 66.2421875 C32.15686645 61.40752768 35.03381271 56.60052146 38.04296875 51.86328125 C38.54981201 51.06003418 39.05665527 50.25678711 39.57885742 49.42919922 C40.5338985 47.92362004 41.49975843 46.42483341 42.4777832 44.93408203 C45.03884905 40.88070005 46.49943059 38.07906673 45.73046875 33.12109375 C42.88062132 29.60628192 40.90692125 28.27647427 36.41796875 27.68359375 C32.55909915 27.7428608 32.55909915 27.7428608 30.24755859 30.73950195 C27.8008359 33.88688707 25.75995618 37.20894281 23.76953125 40.6640625 C23.41587494 41.27316971 23.06221863 41.88227692 22.69784546 42.50984192 C21.57836043 44.43971792 20.46645716 46.37381616 19.35546875 48.30859375 C17.8924959 50.8455949 16.42579856 53.38041214 14.95703125 55.9140625 C14.60263977 56.52732391 14.24824829 57.14058533 13.88311768 57.77243042 C11.05989635 62.62928961 8.05928163 67.35503033 4.95849609 72.0402832 C3.56105007 74.00546928 3.56105007 74.00546928 3.73046875 76.12109375 C3.07046875 76.12109375 2.41046875 76.12109375 1.73046875 76.12109375 C1.47612061 75.42902832 1.22177246 74.73696289 0.9597168 74.02392578 C-0.43486647 70.73065964 -2.1258467 67.75983394 -3.9375 64.67578125 C-4.29540115 64.06525909 -4.65330231 63.45473694 -5.02204895 62.82571411 C-5.77940285 61.53550643 -6.53844526 60.24628859 -7.29907227 58.95800781 C-8.43985751 57.02519098 -9.57486028 55.08907495 -10.70898438 53.15234375 C-17.70028086 39.55176885 -17.70028086 39.55176885 -27.26953125 28.12109375 C-32.24722189 27.56801701 -35.27337018 28.06520587 -39.26953125 31.12109375 Z " fill="#FFFFFF" transform="translate(345.26953125,258.87890625)"/>
<path d="M0 0 C10.4051992 8.48792641 17.38558052 21.2562668 19.78515625 34.41015625 C21.52194446 51.78955299 17.75065508 67.69556366 6.72265625 81.53515625 C-2.89648376 91.85502832 -16.16856208 99.02235142 -30.3671875 99.6484375 C-45.63657405 100.00491501 -57.65334095 97.77127617 -70.21484375 88.41015625 C-71.27445313 87.65992188 -71.27445313 87.65992188 -72.35546875 86.89453125 C-82.12998763 79.27502441 -89.2663585 66.55270344 -91.21484375 54.41015625 C-92.78529487 37.62171187 -90.51018644 23.18839147 -80.21484375 9.41015625 C-79.69148437 8.69214844 -79.168125 7.97414062 -78.62890625 7.234375 C-59.34031734 -16.99397448 -23.70348621 -17.01467176 0 0 Z M-35.21484375 -1.58984375 C-35.21484375 28.44015625 -35.21484375 58.47015625 -35.21484375 89.41015625 C-19.28750576 87.81742245 -9.40666381 83.04818453 0.99609375 70.86328125 C7.57094081 61.84798878 10.90644163 50.53401919 9.78515625 39.41015625 C7.68999736 26.57510725 2.20564641 15.45271479 -8.21484375 7.41015625 C-16.69211831 2.27865788 -25.14882747 -1.58984375 -35.21484375 -1.58984375 Z M-77.21484375 40.41015625 C-77.21484375 42.72015625 -77.21484375 45.03015625 -77.21484375 47.41015625 C-68.63484375 47.41015625 -60.05484375 47.41015625 -51.21484375 47.41015625 C-51.21484375 45.10015625 -51.21484375 42.79015625 -51.21484375 40.41015625 C-59.79484375 40.41015625 -68.37484375 40.41015625 -77.21484375 40.41015625 Z " fill="#FFFFFF" transform="translate(274.21484375,195.58984375)"/>
<path d="M0 0 C6.6 0 13.2 0 20 0 C20 25.41 20 50.82 20 77 C45.74 77 71.48 77 98 77 C98 83.93 98 90.86 98 98 C65.66 98 33.32 98 0 98 C0 65.66 0 33.32 0 0 Z " fill="#FFFFFF" transform="translate(93,283)"/>
<path d="M0 0 C32.34 0 64.68 0 98 0 C98 32.01 98 64.02 98 97 C91.4 97 84.8 97 78 97 C78 71.59 78 46.18 78 20 C52.26 20 26.52 20 0 20 C0 13.4 0 6.8 0 0 Z " fill="#FFFFFF" transform="translate(286,99)"/>
<path d="M0 0 C32.34 0 64.68 0 98 0 C98 6.6 98 13.2 98 20 C72.26 20 46.52 20 20 20 C20 45.41 20 70.82 20 97 C13.4 97 6.8 97 0 97 C0 64.99 0 32.98 0 0 Z " fill="#FFFFFF" transform="translate(93,99)"/>
<path d="M0 0 C2.97 0 5.94 0 9 0 C9 2.97 9 5.94 9 9 C11.97 9 14.94 9 18 9 C18 11.97 18 14.94 18 18 C15.03 18 12.06 18 9 18 C9 21.3 9 24.6 9 28 C6.03 28 3.06 28 0 28 C0 24.7 0 21.4 0 18 C-3.3 18 -6.6 18 -10 18 C-10 15.03 -10 12.06 -10 9 C-6.7 9 -3.4 9 0 9 C0 6.03 0 3.06 0 0 Z " fill="#FFFFFF" transform="translate(256,226)"/>
<path d="M0 0 C1.25 2.6875 1.25 2.6875 2 6 C-1.09888845 11.3123802 -6.19087945 13.85296777 -11.375 16.8125 C-12.21289062 17.31458984 -13.05078125 17.81667969 -13.9140625 18.33398438 C-21.70883829 22.83804114 -21.70883829 22.83804114 -27 22 C-28.875 20.8125 -28.875 20.8125 -30 19 C-30.5 16.5625 -30.5 16.5625 -30 14 C-25.70182671 10.02181144 -20.57974102 7.15767578 -15.5625 4.1875 C-14.72912109 3.67251953 -13.89574219 3.15753906 -13.03710938 2.62695312 C-5.43232924 -1.86377475 -5.43232924 -1.86377475 0 0 Z " fill="#FFFFFF" transform="translate(325,187)"/>
<path d="M0 0 C5.10516901 1.41206802 9.24945705 4.07798794 13.73828125 6.83984375 C14.64835937 7.38253906 15.5584375 7.92523438 16.49609375 8.484375 C23.22244861 12.56609479 23.22244861 12.56609479 25.48828125 15.96484375 C25.16414435 19.28724699 24.88051822 20.57260678 22.48828125 22.96484375 C15.50469877 23.68966468 10.97265101 20.29617569 5.17578125 16.83984375 C4.16193359 16.27007812 3.14808594 15.7003125 2.10351562 15.11328125 C1.14123047 14.54609375 0.17894531 13.97890625 -0.8125 13.39453125 C-1.69075439 12.88132324 -2.56900879 12.36811523 -3.47387695 11.83935547 C-5.51171875 9.96484375 -5.51171875 9.96484375 -6.40307617 6.90283203 C-6.51171875 3.96484375 -6.51171875 3.96484375 -4.94921875 1.52734375 C-2.51171875 -0.03515625 -2.51171875 -0.03515625 0 0 Z " fill="#FFFFFF" transform="translate(156.51171875,186.03515625)"/>
<path d="M0 0 C0.9075 0.391875 1.815 0.78375 2.75 1.1875 C3.9137505 4.34549568 4.04252316 6.47673768 2.75585938 9.60302734 C1.24709547 12.41260993 -0.34961466 15.14623787 -2 17.875 C-2.55171875 18.82439453 -3.1034375 19.77378906 -3.671875 20.75195312 C-8.42482482 28.82397007 -8.42482482 28.82397007 -11.25 31.1875 C-14.10480169 31.61572025 -15.59492892 31.59409584 -18.0625 30.0625 C-19.89479632 27.16940055 -19.67307655 25.62166188 -19.25 22.1875 C-17.60806434 18.61987449 -15.57402865 15.33050414 -13.5 12 C-12.69175781 10.64745117 -12.69175781 10.64745117 -11.8671875 9.26757812 C-5.38644622 -1.34661156 -5.38644622 -1.34661156 0 0 Z " fill="#FFFFFF" transform="translate(288.25,151.8125)"/>
<path d="M0 0 C2.375 0.8125 2.375 0.8125 4.375 2.8125 C5.61139605 9.16398617 1.8371821 13.84183316 -1.375 19 C-1.91382813 19.90169922 -2.45265625 20.80339844 -3.0078125 21.73242188 C-7.68438889 29.39174149 -7.68438889 29.39174149 -11.625 31.8125 C-14.25 31.6875 -14.25 31.6875 -16.625 30.8125 C-18.625 27.8125 -18.625 27.8125 -18.58203125 25.23046875 C-17.23102342 20.40544077 -14.8525111 16.41968889 -12.3125 12.125 C-11.82587891 11.27099609 -11.33925781 10.41699219 -10.83789062 9.53710938 C-5.06048344 -0.3614631 -5.06048344 -0.3614631 0 0 Z " fill="#FFFFFF" transform="translate(203.625,296.1875)"/>
<path d="M0 0 C1.9375 1.6875 1.9375 1.6875 3 4 C2.76178966 6.89517184 2.54618044 8.47279357 0.42578125 10.51953125 C-0.27160156 10.94621094 -0.96898437 11.37289063 -1.6875 11.8125 C-2.8940625 12.55113281 -2.8940625 12.55113281 -4.125 13.3046875 C-5.07375 13.86414063 -6.0225 14.42359375 -7 15 C-8.16738606 15.73062265 -9.33401237 16.46246019 -10.5 17.1953125 C-11.72801391 17.94460086 -12.95717982 18.69200455 -14.1875 19.4375 C-14.76910889 19.80399658 -15.35071777 20.17049316 -15.94995117 20.5480957 C-18.93466238 22.30363353 -20.81188811 23.00512021 -24.30078125 22.91015625 C-27 22 -27 22 -29 19 C-28.9375 16.5625 -28.9375 16.5625 -28 14 C-23.91829118 10.31861262 -19.26206652 7.55912404 -14.5625 4.75 C-13.82451172 4.29109375 -13.08652344 3.8321875 -12.32617188 3.359375 C-8.10996645 0.84089496 -5.0675121 -0.78844977 0 0 Z " fill="#FFFFFF" transform="translate(179,270)"/>
<path d="M0 0 C2.44925177 2.68925383 4.16675333 5.86673466 6 9 C6.639375 10.09183594 7.27875 11.18367187 7.9375 12.30859375 C13.56865009 22.31069704 13.56865009 22.31069704 13 27 C11.8125 28.8125 11.8125 28.8125 10 30 C5.59082892 30.47266314 5.59082892 30.47266314 3.515625 28.8125 C1.9502454 26.57072181 0.44925134 24.32008751 -1 22 C-1.38333496 21.38866211 -1.76666992 20.77732422 -2.16162109 20.14746094 C-3.44639366 18.0712525 -4.69651589 15.97764492 -5.9375 13.875 C-6.35161133 13.194375 -6.76572266 12.51375 -7.19238281 11.8125 C-9.13495302 8.41341544 -10.02416425 6.60065416 -9.86328125 2.6015625 C-9 0 -9 0 -7.25 -1.5 C-4.19009761 -2.17997831 -2.77674972 -1.38837486 0 0 Z " fill="#FFFFFF" transform="translate(195,153)"/>
<path d="M0 0 C1.24007813 0.00064453 2.48015625 0.00128906 3.7578125 0.00195312 C5.70300781 0.02612305 5.70300781 0.02612305 7.6875 0.05078125 C8.98429687 0.04755859 10.28109375 0.04433594 11.6171875 0.04101562 C21.287029 0.09630058 21.287029 0.09630058 24.6875 2.36328125 C25 5.86328125 25 5.86328125 24.6875 9.36328125 C21.89703707 12.15374418 20.15594994 11.62148035 16.25390625 11.62890625 C14.96548828 11.63148438 13.67707031 11.6340625 12.34960938 11.63671875 C11.67696045 11.6325293 11.00431152 11.62833984 10.3112793 11.62402344 C8.26125351 11.6133399 6.21210753 11.62391088 4.16210938 11.63671875 C2.22754883 11.63285156 2.22754883 11.63285156 0.25390625 11.62890625 C-1.52584595 11.62552246 -1.52584595 11.62552246 -3.34155273 11.62207031 C-6.3125 11.36328125 -6.3125 11.36328125 -9.3125 9.36328125 C-9.70029051 6.3255889 -9.9397174 4.29040731 -8.18359375 1.69458008 C-5.45450961 -0.24718608 -3.32296143 -0.00870255 0 0 Z " fill="#FFFFFF" transform="translate(314.3125,233.63671875)"/>
<path d="M0 0 C1.00897339 0.00326294 1.00897339 0.00326294 2.03833008 0.0065918 C4.08859551 0.00974867 6.13741342 -0.01369197 8.1875 -0.0390625 C9.47720703 -0.03970703 10.76691406 -0.04035156 12.09570312 -0.04101562 C13.28220459 -0.04399658 14.46870605 -0.04697754 15.69116211 -0.05004883 C18.66210938 0.32226562 18.66210938 0.32226562 20.58422852 1.6184082 C21.66210938 3.32226562 21.66210938 3.32226562 21.47460938 6.94726562 C21.20648438 8.06101563 20.93835938 9.17476562 20.66210938 10.32226562 C16.43296094 12.43683984 10.88311132 11.50812391 6.23095703 11.50756836 C4.17003811 11.5097572 2.10965248 11.52792546 0.04882812 11.546875 C-1.24410156 11.54880859 -2.53703125 11.55074219 -3.86914062 11.55273438 C-5.06087891 11.55684326 -6.25261719 11.56095215 -7.48046875 11.56518555 C-10.33789062 11.32226562 -10.33789062 11.32226562 -12.33789062 9.32226562 C-12.58789062 5.82226562 -12.58789062 5.82226562 -12.33789062 2.32226562 C-8.97932096 -1.03630404 -4.56324636 0.02511041 0 0 Z " fill="#FFFFFF" transform="translate(150.337890625,233.677734375)"/>
<path d="M0 0 C1.7325 0.1546875 1.7325 0.1546875 3.5 0.3125 C6.87924189 5.38136284 5.82728923 11.36131414 5.8125 17.3125 C5.82861328 18.60929687 5.84472656 19.90609375 5.86132812 21.2421875 C5.86197266 22.48226562 5.86261719 23.72234375 5.86328125 25 C5.86626221 26.13824219 5.86924316 27.27648437 5.87231445 28.44921875 C5.5 31.3125 5.5 31.3125 4.16870117 33.18359375 C1.57287394 34.9397174 -0.46230765 34.70029051 -3.5 34.3125 C-5.90212156 30.70931767 -5.75748287 29.02856185 -5.765625 24.74609375 C-5.76820313 23.45638672 -5.77078125 22.16667969 -5.7734375 20.83789062 C-5.76924805 20.16733643 -5.76505859 19.49678223 -5.76074219 18.8059082 C-5.7500197 16.75376945 -5.76065635 14.70250252 -5.7734375 12.65039062 C-5.77085937 11.36197266 -5.76828125 10.07355469 -5.765625 8.74609375 C-5.76336914 7.56072021 -5.76111328 6.37534668 -5.75878906 5.15405273 C-5.36192415 0.7964011 -4.28882132 0.38293048 0 0 Z " fill="#FFFFFF" transform="translate(238.5,138.6875)"/>
<path d="M0 0 C1.670625 0.4021875 1.670625 0.4021875 3.375 0.8125 C5.65628029 5.37506058 4.56002621 11.74057179 4.5625 16.75 C4.57474609 18.05130859 4.58699219 19.35261719 4.59960938 20.69335938 C4.60250977 22.56024414 4.60250977 22.56024414 4.60546875 24.46484375 C4.60957764 25.60945068 4.61368652 26.75405762 4.61791992 27.93334961 C4.375 30.8125 4.375 30.8125 2.375 33.8125 C-1.125 34.125 -1.125 34.125 -4.625 33.8125 C-7.98356966 30.45393034 -6.92215521 26.03785573 -6.94726562 21.47460938 C-6.94509033 20.80196045 -6.94291504 20.12931152 -6.94067383 19.4362793 C-6.93751696 17.38601386 -6.9609576 15.33719595 -6.98632812 13.28710938 C-6.98697266 11.99740234 -6.98761719 10.70769531 -6.98828125 9.37890625 C-6.99126221 8.19240479 -6.99424316 7.00590332 -6.99731445 5.78344727 C-6.625 2.8125 -6.625 2.8125 -5.32885742 0.89038086 C-3.625 -0.1875 -3.625 -0.1875 0 0 Z " fill="#FFFFFF" transform="translate(239.625,306.1875)"/>
</svg>
