<?xml version="1.0" encoding="UTF-8"?>
<svg version="1.1" xmlns="http://www.w3.org/2000/svg" width="512" height="512">
<path d="M0 0 C1.0792701 -0.01226624 1.0792701 -0.01226624 2.18034363 -0.02478027 C4.55324505 -0.04951445 6.92608678 -0.06612634 9.29907227 -0.08056641 C10.11548754 -0.08589008 10.93190281 -0.09121376 11.77305794 -0.09669876 C16.10097436 -0.12338831 20.42886246 -0.14276989 24.75683594 -0.15722656 C28.31341563 -0.17051462 31.86941462 -0.19827735 35.42578125 -0.23925781 C39.74345605 -0.28899341 44.06060829 -0.31339762 48.37855721 -0.32045364 C50.01099423 -0.32710219 51.64342257 -0.34215367 53.27569389 -0.36634445 C67.94051766 -0.57114979 80.5735156 1.71090068 91.67797852 12.19287109 C92.43099243 12.82358521 92.43099243 12.82358521 93.19921875 13.46704102 C99.47884064 19.09455861 102.98415383 26.41146516 106.86547852 33.75537109 C107.91533354 35.71692322 108.96872699 37.67650397 110.0247345 39.63475037 C110.97823179 41.40666845 111.92250993 43.18353855 112.86621094 44.96069336 C115.85470893 50.95231161 115.85470893 50.95231161 120.67797852 55.19287109 C122.42672501 55.29705076 124.17934477 55.3388421 125.93115234 55.35058594 C127.03022415 55.36084808 128.12929596 55.37111023 129.26167297 55.38168335 C130.45737411 55.38898468 131.65307526 55.39628601 132.88500977 55.40380859 C135.41691696 55.43190512 137.94881791 55.46056972 140.48071289 55.48974609 C144.47187596 55.53080392 148.46281426 55.56768706 152.45410156 55.59423828 C156.30631783 55.62208852 160.15800272 55.66799082 164.01000977 55.71630859 C165.18344437 55.71956146 166.35687897 55.72281433 167.56587219 55.72616577 C182.24152586 55.94060871 196.00671778 59.26717776 207.05688477 69.44287109 C216.24251997 79.3589303 220.82814558 90.43252364 220.82514954 103.83129883 C220.82882622 104.7123806 220.83250291 105.59346237 220.83629102 106.50124359 C220.84732186 109.45965656 220.85117073 112.41803439 220.85498047 115.37646484 C220.86124569 117.49548962 220.86789255 119.61451329 220.87489319 121.73353577 C220.8959332 128.69913976 220.90629717 135.66474397 220.91625977 142.63037109 C220.92030768 145.02978527 220.92442461 147.42919934 220.92860985 149.82861328 C220.94766327 161.10428213 220.96189264 172.37994444 220.97022182 183.6556263 C220.97998795 196.66133967 221.00629069 209.66688257 221.04672271 222.6725359 C221.07691495 232.73047179 221.09169375 242.78835891 221.09500283 252.84633923 C221.09735022 258.85058848 221.10627016 264.85465565 221.131464 270.8588562 C221.15480321 276.51253902 221.15895431 282.16592063 221.14870262 287.81963921 C221.14820854 289.88836102 221.15449115 291.95709795 221.16825867 294.025774 C221.27074898 310.34648046 219.63006908 323.32261739 208.24047852 335.88037109 C207.39485352 336.64349609 206.54922852 337.40662109 205.67797852 338.19287109 C205.18942383 338.67369141 204.70086914 339.15451172 204.19750977 339.64990234 C189.03880343 353.87244155 167.14367602 351.49155686 147.89524639 351.45432043 C144.39758918 351.44975442 140.89995122 351.45680002 137.40229797 351.46228027 C130.56848919 351.47113178 123.73472457 351.46927138 116.90091413 351.46345499 C111.34309907 351.45892208 105.78529631 351.45833261 100.22747993 351.46050262 C99.43382615 351.46080909 98.64017237 351.46111556 97.82246848 351.46143131 C96.20974846 351.46207082 94.59702844 351.46271924 92.98430843 351.46337649 C77.89399477 351.46906726 62.8037055 351.46254143 47.71339584 351.45177576 C34.78775951 351.44283966 21.86215912 351.44439521 8.93652344 351.45361328 C-6.1045786 351.46433512 -21.14565933 351.46851987 -36.18676466 351.46238875 C-37.79295599 351.46175171 -39.39914733 351.46112297 -41.00533867 351.46050262 C-42.19049568 351.4600398 -42.19049568 351.4600398 -43.39959525 351.45956762 C-48.94607495 351.45784655 -54.49254104 351.46074303 -60.03901863 351.46546173 C-66.80489236 351.4710918 -73.57071974 351.46950956 -80.33658821 351.45890024 C-83.78330047 351.45367228 -87.22993564 351.45153727 -90.67664719 351.45819855 C-94.42428299 351.46369511 -98.17170448 351.45677007 -101.91932678 351.44683838 C-102.99250328 351.45129982 -104.06567977 351.45576127 -105.17137676 351.4603579 C-122.34263268 351.37259757 -135.98599431 348.23038484 -148.48608398 336.09130859 C-157.71559646 326.30871671 -161.64070173 315.46758735 -161.58944702 302.15608215 C-161.59397813 301.28045535 -161.59850925 300.40482855 -161.60317767 299.50266761 C-161.61577553 296.58660337 -161.61420428 293.67072701 -161.61254883 290.75463867 C-161.61853702 288.6563493 -161.62534323 286.55806213 -161.63290405 284.45977783 C-161.65054314 278.77153175 -161.6552586 273.08334587 -161.65653563 267.39507508 C-161.65795914 263.83701788 -161.66223257 260.27897589 -161.66753006 256.72092247 C-161.6860245 244.29579068 -161.69420154 231.87070174 -161.69262695 219.44555664 C-161.69142621 207.88374052 -161.71251696 196.32211127 -161.74411428 184.76034242 C-161.77031308 174.81780079 -161.78099271 164.87532006 -161.77971613 154.9327442 C-161.7792075 149.00175031 -161.78483617 143.0709225 -161.80607224 137.13996315 C-161.82551487 131.55761628 -161.82553783 125.9755929 -161.81103897 120.39323425 C-161.80895715 118.35234794 -161.8136141 116.31144106 -161.82575989 114.27058983 C-161.91332201 98.52938634 -160.8194301 85.78976143 -150.32202148 73.19287109 C-149.74838867 72.48388672 -149.17475586 71.77490234 -148.58374023 71.04443359 C-140.10012593 61.56167842 -127.75437344 56.73393445 -115.22570801 56.01525879 C-111.76047648 55.94994998 -108.29955486 55.94266365 -104.83374023 55.95458984 C-102.24584427 55.93918638 -99.65795352 55.92288397 -97.07006836 55.90576172 C-93.023383 55.88703069 -88.9768971 55.87897129 -84.93017578 55.88745117 C-81.00191472 55.89442916 -77.07437727 55.86203193 -73.14624023 55.82958984 C-71.93473801 55.8397966 -70.72323578 55.85000336 -69.47502136 55.86051941 C-62.93200993 55.86596442 -62.93200993 55.86596442 -57.22705078 53.01928711 C-55.31027 50.17543589 -53.58278145 47.38614311 -52.01733398 44.33349609 C-51.43338867 43.21716797 -50.84944336 42.10083984 -50.24780273 40.95068359 C-49.65354492 39.79310547 -49.05928711 38.63552734 -48.44702148 37.44287109 C-39.74553901 20.49888544 -30.68973942 8.06886913 -12.32202148 1.19287109 C-8.18934505 0.15823916 -4.2526817 0.04217394 0 0 Z M-16.63842773 36.77539062 C-19.89137834 41.44631825 -22.32891648 46.52587507 -24.82202148 51.63037109 C-31.11617011 64.47135314 -37.71069768 76.37002339 -51.79594421 81.54138184 C-56.99606188 82.88252086 -62.35482185 82.63377101 -67.69311523 82.63427734 C-68.97001724 82.6474852 -70.24691925 82.66069305 -71.56251526 82.67430115 C-74.94073513 82.70816449 -78.31857472 82.730622 -81.69689941 82.74584961 C-86.44666745 82.76777551 -91.19622195 82.80075143 -95.94581604 82.84715271 C-98.46782658 82.87133181 -100.98994714 82.88633457 -103.5120697 82.89076233 C-116.31860858 82.87166848 -116.31860858 82.87166848 -127.19702148 88.88037109 C-128.2759668 89.84523438 -128.2759668 89.84523438 -129.37670898 90.82958984 C-134.0111029 96.45972703 -134.76389259 101.81007004 -134.70970154 108.83934021 C-134.71508708 109.684972 -134.72047261 110.53060378 -134.72602135 111.40186077 C-134.74027559 114.22224017 -134.73320349 117.04214855 -134.72607422 119.86254883 C-134.7317791 121.88998796 -134.73874381 123.91742387 -134.74687195 125.94485474 C-134.76480511 131.44278229 -134.76363467 136.94055025 -134.75792956 142.43849826 C-134.75483804 147.03099372 -134.76092975 151.6234585 -134.76696831 156.21594959 C-134.78101237 167.05113756 -134.77945313 177.88624667 -134.76806641 188.72143555 C-134.75658425 199.89423729 -134.77066288 211.06679901 -134.79746288 222.23956913 C-134.81962346 231.83807452 -134.82625647 241.4365046 -134.82038647 251.03503376 C-134.8170167 256.76522479 -134.81943352 262.49526196 -134.8366375 268.22543144 C-134.85211021 273.61406562 -134.84814721 279.00234435 -134.82933235 284.39096451 C-134.82564745 286.36621724 -134.82875202 288.34149633 -134.83921814 290.31672478 C-134.85243649 293.01803108 -134.84087326 295.71816205 -134.82322693 298.41941833 C-134.83283194 299.19676706 -134.84243694 299.97411579 -134.85233301 300.77502054 C-134.76649821 307.1829174 -132.80008194 312.37788136 -128.54077148 317.21630859 C-127.97358398 317.66232422 -127.40639648 318.10833984 -126.82202148 318.56787109 C-125.97124023 319.26009766 -125.97124023 319.26009766 -125.10327148 319.96630859 C-121.40350563 322.51395438 -118.72322908 323.44311802 -114.20099354 323.45293331 C-113.16052775 323.4599989 -112.12006197 323.46706449 -111.04806691 323.47434419 C-109.90635477 323.47192911 -108.76464262 323.46951403 -107.58833313 323.46702576 C-106.37436692 323.47226244 -105.16040071 323.47749911 -103.90964764 323.48289448 C-100.53832497 323.49531714 -97.16721073 323.4987376 -93.79587948 323.49829757 C-90.1604141 323.49994497 -86.52498678 323.51301014 -82.88954163 323.52449036 C-74.93901509 323.54734675 -66.98851523 323.55526183 -59.03796029 323.5603168 C-54.07287654 323.56357345 -49.10780054 323.57009578 -44.14272118 323.57731819 C-30.39404328 323.59688591 -16.6453726 323.61328879 -2.89667988 323.61619473 C-1.57676446 323.61647608 -1.57676446 323.61647608 -0.23018409 323.61676312 C1.55366345 323.61712937 3.33751099 323.61749307 5.12135854 323.61785423 C6.00685709 323.61803704 6.89235565 323.61821985 7.8046875 323.6184082 C8.6912679 323.61858875 9.5778483 323.6187693 10.49129478 323.61895532 C24.85364952 323.62249615 39.21585425 323.64951199 53.57815697 323.68690609 C68.32612694 323.72499676 83.07402251 323.74435226 97.82204276 323.74465424 C106.10153151 323.74523868 114.38084136 323.75372203 122.66028404 323.7826519 C129.71129925 323.80717612 136.76207035 323.81444184 143.81311669 323.79940438 C147.40928631 323.79223928 151.00497401 323.7930747 154.60108948 323.81581497 C158.50406344 323.84025863 162.40635159 323.8257575 166.30937195 323.80760193 C168.00520976 323.82740188 168.00520976 323.82740188 169.73530692 323.84760183 C176.79364526 323.77263945 182.03275959 322.59976353 187.67797852 318.19287109 C192.90739499 312.47941234 193.82688045 307.45315419 193.82514954 299.95149231 C193.83066457 298.67592052 193.83066457 298.67592052 193.83629102 297.37457961 C193.84733736 294.51428074 193.85117332 291.65401819 193.85498047 288.79370117 C193.86124442 286.74715052 193.86789115 284.700601 193.87489319 282.65405273 C193.89230954 277.08569296 193.90285677 271.51734177 193.91109872 265.9489615 C193.91624772 262.47054218 193.92232351 258.99212554 193.92860985 255.51370811 C193.94766403 244.63208892 193.96189448 233.75047652 193.97022182 222.86884385 C193.97999492 210.30511177 194.00631552 197.74155584 194.04672271 185.17788583 C194.07687722 175.46907425 194.09169008 165.76031318 194.09500283 156.05145568 C194.09735412 150.25187888 194.10632504 144.45249023 194.131464 138.65296364 C194.15473785 133.19546867 194.15898058 127.73828581 194.14870262 122.28075409 C194.14820698 120.27969258 194.15453565 118.27861575 194.16825867 116.27760124 C194.18597289 113.54108374 194.17887374 110.80568685 194.16572571 108.06916809 C194.18217958 106.88737944 194.18217958 106.88737944 194.19896585 105.68171626 C194.12445316 99.23757836 192.20236411 93.99293905 187.85375977 89.16943359 C187.23887695 88.72341797 186.62399414 88.27740234 185.99047852 87.81787109 C185.38848633 87.35638672 184.78649414 86.89490234 184.16625977 86.41943359 C176.40548009 82.59386873 167.90488011 82.912366 159.46313477 82.91943359 C156.894771 82.89914928 154.32641165 82.87829859 151.75805664 82.85693359 C147.74474902 82.8343414 143.7316239 82.81701241 139.71826172 82.81201172 C135.82040424 82.80245639 131.92331812 82.7686505 128.02563477 82.73193359 C126.83680191 82.73697906 125.64796906 82.74202454 124.42311096 82.7472229 C113.82619634 82.62299664 105.61600234 80.11841813 97.84790039 72.73974609 C93.47601454 67.60838773 90.51625563 61.64392734 87.42797852 55.69287109 C86.07390654 53.13795783 84.71139442 50.58756051 83.34985352 48.03662109 C83.02753754 47.4306459 82.70522156 46.82467072 82.37313843 46.20033264 C77.91384955 36.96870345 77.91384955 36.96870345 70.55297852 30.25537109 C69.89040039 29.87509766 69.22782227 29.49482422 68.54516602 29.10302734 C64.68289817 27.22037377 61.56114727 27.05192927 57.31396484 27.01586914 C55.99862259 27.00303391 54.68328033 26.99019867 53.32807922 26.97697449 C51.88872658 26.96880504 50.44936966 26.9613617 49.01000977 26.95458984 C48.28356451 26.95051432 47.55711926 26.94643879 46.80866051 26.94223976 C42.96098492 26.92138993 39.11334483 26.90708551 35.265625 26.89770508 C31.30574132 26.88666376 27.34642315 26.85228786 23.38673878 26.81253338 C20.3299409 26.78628971 17.27327596 26.77800626 14.21637535 26.7744236 C12.75762821 26.76957486 11.29888632 26.75800997 9.84025002 26.7393856 C-1.43047041 26.60446217 -9.17178547 27.63044697 -16.63842773 36.77539062 Z " fill="#FFFFFF" transform="translate(226.322021484375,59.80712890625)"/>
<path d="M0 0 C18.008229 16.02903423 31.71257838 39.42814089 33.17700195 63.96582031 C33.82272361 96.76127745 27.15257429 122.77468977 4 147 C-15.78927819 166.21209091 -40.99970795 174.56343058 -68.22875977 174.41943359 C-94.01501015 173.84147556 -115.41254983 163.76555611 -134 146 C-134.67546875 145.39929688 -135.3509375 144.79859375 -136.046875 144.1796875 C-152.91140891 128.59685817 -162.36902501 104.4909062 -163.34375 81.83203125 C-164.05084722 51.53405576 -154.60462571 25.35690717 -133.6875 3.25 C-96.59227864 -32.22392672 -38.85034335 -32.54042181 0 0 Z M-95 10 C-96.40378906 10.63035156 -96.40378906 10.63035156 -97.8359375 11.2734375 C-113.3503914 18.96398342 -126.26438399 33.72097222 -132 50 C-138.66249042 70.0751356 -137.54846158 89.21876374 -128.25 108.3125 C-119.68832601 124.95478806 -105.64864022 137.43083768 -87.94335938 143.73193359 C-69.21368717 149.61677203 -50.5749826 148.1113858 -32.8125 139.9375 C-14.27172757 130.0434504 -1.84068987 113.98006389 4.4375 94 C9.10470727 74.60381394 6.3709196 54.77726976 -3.66796875 37.578125 C-14.06993169 20.93856655 -30.54420323 9.70193666 -49.36328125 4.75390625 C-65.39458981 1.43055227 -80.15739661 3.27385821 -95 10 Z " fill="#FFFFFF" transform="translate(321,178)"/>
<path d="M0 0 C4.75982924 2.62772498 7.04616381 6.26349144 8.75 11.375 C9.33654533 17.3577624 8.06119589 21.47741122 4.75 26.375 C-0.52315234 31.2714986 -4.13818382 31.78644428 -11.1953125 31.71875 C-15.66820708 31.21540636 -18.25216959 29.67086034 -21.25 26.375 C-25.03080128 21.25262407 -25.07294759 15.5105315 -24.25 9.375 C-22.06473658 4.92353749 -19.3105479 2.18614855 -15.25 -0.625 C-9.85269529 -2.42410157 -5.14951716 -2.31968904 0 0 Z " fill="#FFFFFF" transform="translate(385.25,165.625)"/>
</svg>
