<?xml version="1.0" encoding="UTF-8"?>
<svg version="1.1" xmlns="http://www.w3.org/2000/svg" width="512" height="512">
<path d="M0 0 C1.0395256 -0.00453111 2.0790512 -0.00906223 3.15007758 -0.01373065 C6.62668814 -0.02637144 10.10314198 -0.02475446 13.57977295 -0.02310181 C16.07524313 -0.02908726 18.57071147 -0.03589285 21.06617737 -0.04345703 C27.13759759 -0.05928847 33.2089564 -0.06556537 39.28039154 -0.06668179 C44.21816041 -0.06763359 49.15591651 -0.07175047 54.09368134 -0.07808304 C68.10767823 -0.09568859 82.12164454 -0.10492305 96.13565257 -0.10342209 C97.26790671 -0.10330222 97.26790671 -0.10330222 98.42303467 -0.10317993 C99.55667893 -0.10305729 99.55667893 -0.10305729 100.7132251 -0.10293217 C112.95623613 -0.10211959 125.19912405 -0.12125189 137.44209948 -0.14945666 C150.02733107 -0.17822002 162.61250269 -0.19199505 175.19776797 -0.19026911 C182.25770441 -0.18960637 189.31751178 -0.1950475 196.37741852 -0.21662521 C203.01932875 -0.236796 209.66101359 -0.23612809 216.30295372 -0.22159195 C218.7365299 -0.21950341 221.17012315 -0.22420737 223.60367012 -0.23631287 C226.93442144 -0.25180433 230.26423875 -0.24243046 233.5949707 -0.22705078 C234.55034642 -0.23733791 235.50572215 -0.24762503 236.49004865 -0.25822389 C248.24792284 -0.13883982 257.30421541 4.295296 265.68035889 12.30258179 C274.09711633 21.09135061 276.66344078 30.47480881 276.69189453 42.47595215 C276.69635121 43.53062362 276.69635121 43.53062362 276.70089793 44.6066016 C276.70953436 46.95074917 276.71108888 49.29484537 276.71258545 51.63900757 C276.71721727 53.32483528 276.72224242 55.01066196 276.72763062 56.69648743 C276.74072306 61.26910569 276.74719361 65.84170929 276.75164127 70.41434336 C276.7545776 73.27520219 276.7586835 76.13605707 276.76314545 78.99691391 C276.77681318 87.95956723 276.78648291 96.92221145 276.79034734 105.88487446 C276.79482394 116.20890451 276.81235643 126.53280189 276.84134793 136.85679162 C276.86301297 144.85109192 276.87305422 152.84535504 276.87438846 160.83968437 C276.8754332 165.60756214 276.88127003 170.37531508 276.89920807 175.14316177 C276.91577194 179.63298841 276.91780419 184.12259749 276.90906906 188.61244392 C276.90830307 190.25222293 276.91258302 191.89201404 276.92252731 193.53176308 C276.99807813 206.77575578 276.22181316 218.62466072 267.55145264 229.26742554 C266.79735107 230.2071521 266.79735107 230.2071521 266.02801514 231.16586304 C260.28277899 237.58371219 251.16965694 242.86518375 242.43224853 243.3962267 C241.66510074 243.39801527 240.89795295 243.39980384 240.10755825 243.40164661 C239.21811187 243.40610446 238.32866549 243.4105623 237.41226619 243.41515523 C236.43922906 243.41497087 235.46619193 243.41478651 234.46366882 243.41459656 C232.90822533 243.42011159 232.90822533 243.42011159 231.32135874 243.42573804 C227.83547035 243.43677931 224.34961176 243.4406195 220.8637085 243.44442749 C218.3686819 243.45069185 215.87365623 243.45733862 213.37863159 243.46434021 C205.88296209 243.48357022 198.3873005 243.49416932 190.89161357 243.503068 C187.35902671 243.50745405 183.82644135 243.51282008 180.29385567 243.51805687 C168.54565587 243.53506845 156.797457 243.54956127 145.04924679 243.55680561 C142.00156083 243.55871541 138.95387489 243.56063576 135.90618896 243.56259155 C135.14872962 243.56307529 134.39127027 243.56355903 133.61085761 243.56405743 C121.3482624 243.57235272 109.08576489 243.59768145 96.82321232 243.63017223 C84.22452236 243.66328057 71.62588199 243.68125783 59.02714831 243.68444985 C51.95709808 243.68661159 44.88719028 243.69531067 37.81718254 243.72091103 C31.16301255 243.74495037 24.50905224 243.74842003 17.8548317 243.73814964 C15.41641577 243.73765445 12.9779872 243.74396996 10.53960991 243.75770569 C7.20214238 243.7754497 3.86559094 243.76830519 0.52812195 243.75517273 C-0.42930013 243.76614198 -1.38672221 243.77711122 -2.37315708 243.78841287 C-14.61129679 243.67272036 -23.35752622 238.82540865 -32.16339111 230.68148804 C-43.31706676 219.04533788 -42.5994071 203.28206478 -42.59381104 188.28964233 C-42.59680748 186.68218915 -42.60021112 185.07473669 -42.60398865 183.46728516 C-42.61278308 179.12210576 -42.61516482 174.77694608 -42.61580443 170.43175864 C-42.61651748 167.7114242 -42.61865661 164.9910947 -42.62130165 162.27076149 C-42.63053972 152.76451934 -42.63463843 143.25829117 -42.6338501 133.75204468 C-42.6332496 124.91625099 -42.64379998 116.08051842 -42.65959376 107.24474019 C-42.67270415 99.63678791 -42.67803253 92.02885553 -42.67739469 84.42089206 C-42.67714075 79.88671485 -42.67993437 75.35259201 -42.69057274 70.81842613 C-42.70031293 66.55102198 -42.70029266 62.28372352 -42.69305611 58.01631546 C-42.69201761 56.4587787 -42.69432894 54.90123515 -42.70041656 53.34370995 C-42.75589245 38.15490698 -42.10457705 23.12349766 -31.19854736 11.39242554 C-21.77769393 2.86780374 -12.41372986 -0.03987131 0 0 Z M-13.82354736 27.16976929 C-14.35979736 27.84137085 -14.89604736 28.51297241 -15.44854736 29.20492554 C-16.00542236 29.87394897 -16.56229736 30.54297241 -17.13604736 31.23226929 C-19.77109248 35.3181577 -19.57747444 39.34245344 -19.58898926 44.11723328 C-19.59196038 44.80583236 -19.5949315 45.49443145 -19.59799266 46.20389718 C-19.60666233 48.51064879 -19.60818643 50.81734839 -19.60968018 53.12411499 C-19.61430956 54.77835195 -19.61933438 56.43258785 -19.62472534 58.08682251 C-19.63783931 62.58071358 -19.64429228 67.07458973 -19.648736 71.56849694 C-19.65166819 74.376708 -19.65577326 77.184915 -19.66024017 79.99312401 C-19.67391212 88.78117679 -19.6835804 97.56922026 -19.68744206 106.35728294 C-19.69192299 116.49857242 -19.70947375 126.63972713 -19.73844266 136.78097564 C-19.76006356 144.62229256 -19.77014655 152.46357158 -19.77148318 160.30491799 C-19.77253087 164.98715312 -19.77843096 169.6692615 -19.7963028 174.35146523 C-19.81279065 178.75671128 -19.81493553 183.16173541 -19.80616379 187.56700134 C-19.80539381 189.18146548 -19.80973096 190.79594158 -19.81962204 192.4103756 C-19.83235951 194.61940225 -19.82645567 196.82764499 -19.81604004 199.03666687 C-19.8175066 200.27128316 -19.81897316 201.50589945 -19.82048416 202.77792835 C-19.24368299 208.18945542 -17.50339953 213.00931217 -13.19854736 216.57992554 C-12.65714111 217.05043335 -12.11573486 217.52094116 -11.55792236 218.00570679 C-5.2591419 221.77331066 1.42303745 221.54497483 8.5355835 221.49447632 C9.61925201 221.49476837 10.70292053 221.49506042 11.81942749 221.49536133 C15.38513319 221.49397304 18.95062739 221.47843522 22.51629639 221.46273804 C24.99493801 221.45900613 27.47358111 221.45616 29.95222473 221.4541626 C36.46402079 221.44654015 42.9757271 221.42690348 49.48748779 221.40475464 C56.13704739 221.38318016 62.78663318 221.37515449 69.43621826 221.36508179 C82.47466907 221.34365636 95.51305338 221.3095371 108.55145264 221.26742554 C108.55145264 217.63742554 108.55145264 214.00742554 108.55145264 210.26742554 C70.27145264 210.26742554 31.99145264 210.26742554 -7.44854736 210.26742554 C-6.44854736 173.26742554 -6.44854736 173.26742554 0.87567139 162.32211304 C3.95697028 159.45081265 6.99165145 156.79396693 10.23895264 154.14242554 C11.82969248 152.70729625 13.41243991 151.26325745 14.98699951 149.81039429 C30.33760224 135.89439999 30.33760224 135.89439999 38.86395264 135.70492554 C40.15752686 135.64111694 40.15752686 135.64111694 41.47723389 135.57601929 C49.68008265 137.42087854 55.97667026 144.24867071 61.80145264 149.95492554 C63.15672956 151.27555049 64.51599728 152.59209458 65.87957764 153.90414429 C66.46642334 154.47866333 67.05326904 155.05318237 67.65789795 155.64511108 C69.81261488 157.49117787 72.10849418 158.83281899 74.55145264 160.26742554 C98.50848807 142.76410307 98.50848807 142.76410307 110.96834183 116.96491623 C112.60488052 103.27083765 111.77723093 89.443397 110.88604736 75.72238159 C110.53215723 69.67780622 110.38172067 63.62805964 110.21160889 57.57601929 C109.85164089 45.7933627 109.27517276 34.03296975 108.55145264 22.26742554 C94.23432307 22.19719757 79.91722039 22.1445698 65.59995365 22.11198902 C58.95147459 22.09634991 52.30314228 22.07514345 45.65472412 22.04110718 C39.23565472 22.00845163 32.81669666 21.99055931 26.39755058 21.98279381 C23.9516061 21.97726147 21.50566753 21.96645818 19.05977058 21.95023537 C15.62725906 21.92837925 12.19520447 21.9254621 8.76263428 21.92684937 C7.75705978 21.91606354 6.75148529 21.90527771 5.71543884 21.89416504 C-1.34351258 21.92492668 -8.15653376 22.63056595 -13.82354736 27.16976929 Z M231.81097412 91.9102478 C230.59578855 93.13241763 229.38317796 94.35715079 228.17254639 95.58383179 C227.52705338 96.23311142 226.88156036 96.88239105 226.21650696 97.55134583 C223.44637947 100.33782695 220.68201675 103.13000021 217.91741943 105.92196655 C215.90043676 107.9572264 213.88031453 109.98933395 211.86004639 112.02133179 C211.24826035 112.64141617 210.6364743 113.26150055 210.00614929 113.90037537 C206.24250098 117.68485539 202.3546058 121.25772493 198.29933167 124.72846985 C195.17914642 127.4757005 192.431926 130.57798704 189.62957764 133.64242554 C187.55145264 135.26742554 187.55145264 135.26742554 185.65692139 135.34945679 C182.5120906 133.73328215 180.13494637 131.38760299 177.61395264 128.95492554 C176.45516067 127.86241164 175.29630463 126.76996571 174.13739014 125.67758179 C173.54538818 125.11442261 172.95338623 124.55126343 172.34344482 123.97103882 C158.56610301 109.14876465 158.56610301 109.14876465 140.55145264 102.26742554 C129.07416844 103.95956579 119.63051674 111.68133143 112.69777584 120.65522861 C103.96240304 133.61473472 107.57190294 154.62830652 108.23895264 169.07992554 C108.67207764 182.34180054 109.10520264 195.60367554 109.55145264 209.26742554 C151.13145264 209.26742554 192.71145264 209.26742554 235.55145264 209.26742554 C235.55145264 169.66742554 235.55145264 130.06742554 235.55145264 89.26742554 C234.03688946 89.15173133 234.03688946 89.15173133 231.81097412 91.9102478 Z " fill="#FFFFFF" transform="translate(138.44854736328125,133.73257446289063)"/>
<path d="M0 0 C5.69304684 4.30627902 9.59575694 10.80702564 10.984375 17.77734375 C11.91076252 26.46621982 9.66250072 33.08788973 4.2109375 39.90234375 C-2.38703318 46.13948791 -8.60245413 48.43388736 -17.6484375 48.2890625 C-22.6962373 47.66750506 -26.54109289 45.59847206 -30.7890625 42.90234375 C-32.18125 42.03609375 -32.18125 42.03609375 -33.6015625 41.15234375 C-39.96325788 34.60888565 -42.23292008 27.0412516 -42.125 18.10546875 C-41.38517349 11.05130896 -38.07617006 5.77275779 -32.9765625 0.96484375 C-22.52915703 -7.33047445 -11.19458185 -6.86829148 0 0 Z " fill="#FFFFFF" transform="translate(213.7890625,195.09765625)"/>
</svg>
