<?xml version="1.0" encoding="UTF-8"?>
<svg version="1.1" xmlns="http://www.w3.org/2000/svg" width="512" height="512">
<path d="M0 0 C0.85428589 -0.00315216 1.70857178 -0.00630432 2.58874512 -0.009552 C3.51272095 -0.00752777 4.43669678 -0.00550354 5.38867188 -0.00341797 C6.33552856 -0.00437469 7.28238525 -0.00533142 8.25793457 -0.00631714 C10.26196357 -0.00699833 12.26599476 -0.00514827 14.27001953 -0.00097656 C17.34477678 0.00437253 20.41938794 -0.00092361 23.49414062 -0.00732422 C25.43815137 -0.00666343 27.38216201 -0.00538224 29.32617188 -0.00341797 C30.71213562 -0.00645432 30.71213562 -0.00645432 32.12609863 -0.009552 C32.98038452 -0.00639984 33.83467041 -0.00324768 34.71484375 0 C35.4682605 0.00079559 36.22167725 0.00159119 36.9979248 0.00241089 C38.85742188 0.12939453 38.85742188 0.12939453 40.85742188 1.12939453 C44.33398531 1.56998138 47.8101501 1.94373863 51.296875 2.29150391 C56.00735358 2.79929432 60.31025967 3.73156319 64.85742188 5.12939453 C66.85230422 5.49210041 68.85120298 5.83580152 70.85742188 6.12939453 C70.85742188 6.78939453 70.85742188 7.44939453 70.85742188 8.12939453 C73.82742188 8.45939453 76.79742187 8.78939453 79.85742188 9.12939453 C79.85742188 9.78939453 79.85742188 10.44939453 79.85742188 11.12939453 C80.53160156 11.24154297 81.20578125 11.35369141 81.90039062 11.46923828 C85.43616859 12.25859954 88.77685753 13.44439302 92.16992188 14.69189453 C92.81509766 14.92585938 93.46027344 15.15982422 94.125 15.40087891 C95.70363406 15.9738646 97.28069213 16.55118917 98.85742188 17.12939453 C98.85742188 17.78939453 98.85742188 18.44939453 98.85742188 19.12939453 C100.83742188 19.45939453 102.81742187 19.78939453 104.85742188 20.12939453 C104.85742188 20.78939453 104.85742188 21.44939453 104.85742188 22.12939453 C105.41429687 22.25314453 105.97117187 22.37689453 106.54492188 22.50439453 C109.07856552 23.18916308 111.43663219 24.12073216 113.85742188 25.12939453 C113.85742188 25.78939453 113.85742188 26.44939453 113.85742188 27.12939453 C115.50742187 27.45939453 117.15742188 27.78939453 118.85742188 28.12939453 C118.85742188 28.78939453 118.85742188 29.44939453 118.85742188 30.12939453 C120.17742187 30.45939453 121.49742187 30.78939453 122.85742188 31.12939453 C122.85742188 31.78939453 122.85742188 32.44939453 122.85742188 33.12939453 C123.84742188 33.12939453 124.83742188 33.12939453 125.85742188 33.12939453 C125.85742188 33.78939453 125.85742188 34.44939453 125.85742188 35.12939453 C127.17742187 35.45939453 128.49742187 35.78939453 129.85742188 36.12939453 C129.85742188 36.78939453 129.85742188 37.44939453 129.85742188 38.12939453 C131.17742187 38.45939453 132.49742187 38.78939453 133.85742188 39.12939453 C133.85742188 39.78939453 133.85742188 40.44939453 133.85742188 41.12939453 C134.47617187 41.43876953 135.09492188 41.74814453 135.73242188 42.06689453 C137.10742188 42.75439453 138.48242188 43.44189453 139.85742188 44.12939453 C139.85742188 44.78939453 139.85742188 45.44939453 139.85742188 46.12939453 C140.66179687 46.46970703 140.66179687 46.46970703 141.48242188 46.81689453 C144.68202349 48.58509542 147.14779411 50.66609656 149.85742188 53.12939453 C149.85742188 53.78939453 149.85742188 54.44939453 149.85742188 55.12939453 C150.51742188 55.12939453 151.17742187 55.12939453 151.85742188 55.12939453 C153.22815973 56.76543649 154.55797444 58.43617514 155.85742188 60.12939453 C156.72367187 60.96470703 156.72367187 60.96470703 157.60742188 61.81689453 C158.85742188 63.12939453 158.85742188 63.12939453 158.85742188 65.12939453 C159.84742188 65.45939453 160.83742188 65.78939453 161.85742188 66.12939453 C162.88755465 67.77760697 163.88856816 69.44443155 164.85742188 71.12939453 C165.51742188 71.45939453 166.17742187 71.78939453 166.85742188 72.12939453 C166.85742188 72.78939453 166.85742188 73.44939453 166.85742188 74.12939453 C167.51742188 74.12939453 168.17742187 74.12939453 168.85742188 74.12939453 C169.18742187 75.77939453 169.51742188 77.42939453 169.85742188 79.12939453 C170.84742188 79.45939453 171.83742188 79.78939453 172.85742188 80.12939453 C174.04492187 83.19189453 174.04492187 83.19189453 174.85742188 86.12939453 C175.51742188 86.12939453 176.17742187 86.12939453 176.85742188 86.12939453 C177.18742187 87.77939453 177.51742188 89.42939453 177.85742188 91.12939453 C178.51742188 91.12939453 179.17742187 91.12939453 179.85742188 91.12939453 C180.18742187 92.77939453 180.51742188 94.42939453 180.85742188 96.12939453 C181.51742188 96.12939453 182.17742187 96.12939453 182.85742188 96.12939453 C184.89177718 99.85904592 185.85742188 101.79844495 185.85742188 106.12939453 C186.51742188 106.12939453 187.17742187 106.12939453 187.85742188 106.12939453 C188.18742187 108.10939453 188.51742188 110.08939453 188.85742188 112.12939453 C189.51742188 112.12939453 190.17742187 112.12939453 190.85742188 112.12939453 C191.18742187 114.76939453 191.51742188 117.40939453 191.85742188 120.12939453 C192.51742188 120.12939453 193.17742187 120.12939453 193.85742188 120.12939453 C197.30161322 129.53941731 197.30161322 129.53941731 196.85742188 134.12939453 C197.51742188 134.12939453 198.17742187 134.12939453 198.85742188 134.12939453 C198.99019531 134.98404297 199.12296875 135.83869141 199.25976562 136.71923828 C199.43636719 137.82396484 199.61296875 138.92869141 199.79492188 140.06689453 C199.96894531 141.16904297 200.14296875 142.27119141 200.32226562 143.40673828 C200.57587323 146.03366382 200.57587323 146.03366382 201.85742188 147.12939453 C202.23290961 149.94261902 202.5639991 152.74499273 202.85742188 155.56689453 C203.22629374 161.01308042 203.22629374 161.01308042 204.85742188 166.12939453 C204.95154649 167.50771724 204.98535754 168.8904406 204.98681641 170.27197266 C204.98996857 171.12625854 204.99312073 171.98054443 204.99636841 172.86071777 C204.99333206 174.24668152 204.99333206 174.24668152 204.99023438 175.66064453 C204.99166946 177.08092957 204.99166946 177.08092957 204.99313354 178.52990723 C204.99381474 180.53393622 204.99196468 182.53796742 204.98779297 184.54199219 C204.98244387 187.61674943 204.98774002 190.6913606 204.99414062 193.76611328 C204.99347983 195.71012402 204.99219865 197.65413467 204.99023438 199.59814453 C204.99225861 200.52212036 204.99428284 201.44609619 204.99636841 202.39807129 C204.99321625 203.25235718 204.99006409 204.10664307 204.98681641 204.98681641 C204.98562302 206.11694153 204.98562302 206.11694153 204.98440552 207.26989746 C204.85742188 209.12939453 204.85742188 209.12939453 203.85742188 211.12939453 C203.41683503 214.60595797 203.04307778 218.08212276 202.6953125 221.56884766 C202.18752208 226.27932624 201.25525322 230.58223233 199.85742188 235.12939453 C199.49471599 237.12427687 199.15101488 239.12317564 198.85742188 241.12939453 C198.19742187 241.12939453 197.53742188 241.12939453 196.85742188 241.12939453 C196.8084375 241.72107422 196.75945312 242.31275391 196.70898438 242.92236328 C196.29285321 247.32043925 195.80776592 251.0986835 193.85742188 255.12939453 C193.19742187 255.12939453 192.53742188 255.12939453 191.85742188 255.12939453 C191.52742188 257.76939453 191.19742187 260.40939453 190.85742188 263.12939453 C190.19742187 263.12939453 189.53742188 263.12939453 188.85742188 263.12939453 C188.52742188 265.10939453 188.19742187 267.08939453 187.85742188 269.12939453 C187.19742187 269.12939453 186.53742188 269.12939453 185.85742188 269.12939453 C185.73367188 270.03689453 185.60992187 270.94439453 185.48242188 271.87939453 C184.9363251 274.71909776 184.28478385 276.65530044 182.85742188 279.12939453 C182.19742187 279.12939453 181.53742188 279.12939453 180.85742188 279.12939453 C180.52742188 280.77939453 180.19742187 282.42939453 179.85742188 284.12939453 C179.19742187 284.12939453 178.53742188 284.12939453 177.85742188 284.12939453 C177.52742188 285.77939453 177.19742187 287.42939453 176.85742188 289.12939453 C176.19742187 289.12939453 175.53742188 289.12939453 174.85742188 289.12939453 C174.58929688 290.09876953 174.32117188 291.06814453 174.04492188 292.06689453 C173.65304687 293.07751953 173.26117188 294.08814453 172.85742188 295.12939453 C171.86742187 295.45939453 170.87742187 295.78939453 169.85742188 296.12939453 C169.52742188 297.77939453 169.19742187 299.42939453 168.85742188 301.12939453 C168.19742187 301.12939453 167.53742188 301.12939453 166.85742188 301.12939453 C166.85742188 301.78939453 166.85742188 302.44939453 166.85742188 303.12939453 C165.54612266 304.48440372 164.210505 305.81610797 162.85742188 307.12939453 C162.19742187 308.11939453 161.53742188 309.10939453 160.85742188 310.12939453 C160.19742187 310.12939453 159.53742188 310.12939453 158.85742188 310.12939453 C158.79554688 310.70689453 158.73367188 311.28439453 158.66992188 311.87939453 C157.53871398 315.01197024 155.47794387 316.16400304 152.85742188 318.12939453 C152.52742188 318.78939453 152.19742187 319.44939453 151.85742188 320.12939453 C151.19742187 320.12939453 150.53742188 320.12939453 149.85742188 320.12939453 C149.85742188 320.78939453 149.85742188 321.44939453 149.85742188 322.12939453 C148.17773437 323.85595703 148.17773437 323.85595703 145.98242188 325.75439453 C144.90347656 326.70185547 144.90347656 326.70185547 143.80273438 327.66845703 C141.85742187 329.12939453 141.85742187 329.12939453 139.85742188 329.12939453 C139.85742188 329.78939453 139.85742188 330.44939453 139.85742188 331.12939453 C136.39588341 334.12939453 136.39588341 334.12939453 133.85742188 334.12939453 C133.85742188 334.78939453 133.85742188 335.44939453 133.85742188 336.12939453 C132.53742188 336.45939453 131.21742188 336.78939453 129.85742188 337.12939453 C129.85742188 337.78939453 129.85742188 338.44939453 129.85742188 339.12939453 C128.53742188 339.45939453 127.21742188 339.78939453 125.85742188 340.12939453 C125.85742188 340.78939453 125.85742188 341.44939453 125.85742188 342.12939453 C124.86742187 342.12939453 123.87742187 342.12939453 122.85742188 342.12939453 C122.85742188 342.78939453 122.85742188 343.44939453 122.85742188 344.12939453 C121.53742188 344.45939453 120.21742188 344.78939453 118.85742188 345.12939453 C118.85742188 345.78939453 118.85742188 346.44939453 118.85742188 347.12939453 C117.20742188 347.45939453 115.55742187 347.78939453 113.85742188 348.12939453 C113.85742188 348.78939453 113.85742188 349.44939453 113.85742188 350.12939453 C108.23242188 353.12939453 108.23242188 353.12939453 104.85742188 353.12939453 C104.85742188 353.78939453 104.85742188 354.44939453 104.85742188 355.12939453 C102.87742187 355.45939453 100.89742188 355.78939453 98.85742188 356.12939453 C98.85742188 356.78939453 98.85742188 357.44939453 98.85742188 358.12939453 C96.62978199 358.9462963 94.40047328 359.75801325 92.16992188 360.56689453 C91.54408203 360.79699219 90.91824219 361.02708984 90.2734375 361.26416016 C86.8249988 362.50993121 83.47607397 363.52743902 79.85742188 364.12939453 C79.85742188 364.78939453 79.85742188 365.44939453 79.85742188 366.12939453 C76.88742187 366.45939453 73.91742188 366.78939453 70.85742188 367.12939453 C70.85742188 367.78939453 70.85742188 368.44939453 70.85742188 369.12939453 C70.00277344 369.26216797 69.148125 369.39494141 68.26757812 369.53173828 C67.16285156 369.70833984 66.058125 369.88494141 64.91992188 370.06689453 C63.81777344 370.24091797 62.715625 370.41494141 61.58007812 370.59423828 C58.95315259 370.84784589 58.95315259 370.84784589 57.85742188 372.12939453 C55.04419739 372.50488226 52.24182368 372.83597176 49.41992188 373.12939453 C43.97373598 373.4982664 43.97373598 373.4982664 38.85742188 375.12939453 C37.47909916 375.22351914 36.0963758 375.25733019 34.71484375 375.25878906 C33.86055786 375.26194122 33.00627197 375.26509338 32.12609863 375.26834106 C31.2021228 375.26631683 30.27814697 375.2642926 29.32617188 375.26220703 C28.37931519 375.26316376 27.4324585 375.26412048 26.45690918 375.2651062 C24.45288018 375.26578739 22.44884899 375.26393733 20.44482422 375.25976562 C17.37006697 375.25441653 14.29545581 375.25971268 11.22070312 375.26611328 C9.27669238 375.26545249 7.33268174 375.2641713 5.38867188 375.26220703 C4.00270813 375.26524338 4.00270813 375.26524338 2.58874512 375.26834106 C1.73445923 375.2651889 0.88017334 375.26203674 0 375.25878906 C-0.75341675 375.25799347 -1.5068335 375.25719788 -2.28308105 375.25637817 C-4.14257812 375.12939453 -4.14257812 375.12939453 -6.14257812 374.12939453 C-9.61914156 373.68880768 -13.09530635 373.31505043 -16.58203125 372.96728516 C-21.29250983 372.45949474 -25.59541592 371.52722588 -30.14257812 370.12939453 C-32.13746047 369.76668865 -34.13635923 369.42298754 -36.14257812 369.12939453 C-36.14257812 368.46939453 -36.14257812 367.80939453 -36.14257812 367.12939453 C-39.11257812 366.79939453 -42.08257812 366.46939453 -45.14257812 366.12939453 C-45.14257812 365.46939453 -45.14257812 364.80939453 -45.14257812 364.12939453 C-45.81675781 364.01724609 -46.4909375 363.90509766 -47.18554688 363.78955078 C-50.72132484 363.00018952 -54.06201378 361.81439605 -57.45507812 360.56689453 C-58.10025391 360.33292969 -58.74542969 360.09896484 -59.41015625 359.85791016 C-60.98879031 359.28492446 -62.56584838 358.70759989 -64.14257812 358.12939453 C-64.14257812 357.46939453 -64.14257812 356.80939453 -64.14257812 356.12939453 C-66.12257813 355.79939453 -68.10257812 355.46939453 -70.14257812 355.12939453 C-70.14257812 354.46939453 -70.14257812 353.80939453 -70.14257812 353.12939453 C-70.69945312 353.00564453 -71.25632812 352.88189453 -71.83007812 352.75439453 C-74.36372177 352.06962598 -76.72178844 351.1380569 -79.14257812 350.12939453 C-79.14257812 349.46939453 -79.14257812 348.80939453 -79.14257812 348.12939453 C-80.79257813 347.79939453 -82.44257813 347.46939453 -84.14257812 347.12939453 C-84.14257812 346.46939453 -84.14257812 345.80939453 -84.14257812 345.12939453 C-85.46257812 344.79939453 -86.78257812 344.46939453 -88.14257812 344.12939453 C-88.14257812 343.46939453 -88.14257812 342.80939453 -88.14257812 342.12939453 C-89.13257813 342.12939453 -90.12257813 342.12939453 -91.14257812 342.12939453 C-91.14257812 341.46939453 -91.14257812 340.80939453 -91.14257812 340.12939453 C-92.46257812 339.79939453 -93.78257812 339.46939453 -95.14257812 339.12939453 C-95.14257812 338.46939453 -95.14257812 337.80939453 -95.14257812 337.12939453 C-96.46257812 336.79939453 -97.78257812 336.46939453 -99.14257812 336.12939453 C-99.14257812 335.46939453 -99.14257812 334.80939453 -99.14257812 334.12939453 C-99.76132813 333.82001953 -100.38007813 333.51064453 -101.01757812 333.19189453 C-102.39257812 332.50439453 -103.76757812 331.81689453 -105.14257812 331.12939453 C-105.14257812 330.46939453 -105.14257812 329.80939453 -105.14257812 329.12939453 C-105.67882812 328.90251953 -106.21507812 328.67564453 -106.76757812 328.44189453 C-109.96717974 326.67369364 -112.43295036 324.5926925 -115.14257812 322.12939453 C-115.14257812 321.46939453 -115.14257812 320.80939453 -115.14257812 320.12939453 C-115.80257812 320.12939453 -116.46257812 320.12939453 -117.14257812 320.12939453 C-118.51331598 318.49335257 -119.84313069 316.82261392 -121.14257812 315.12939453 C-121.72007813 314.57251953 -122.29757813 314.01564453 -122.89257812 313.44189453 C-124.14257812 312.12939453 -124.14257812 312.12939453 -124.14257812 310.12939453 C-125.13257813 309.79939453 -126.12257812 309.46939453 -127.14257812 309.12939453 C-128.1727109 307.48118209 -129.17372441 305.81435751 -130.14257812 304.12939453 C-130.80257812 303.79939453 -131.46257812 303.46939453 -132.14257812 303.12939453 C-132.14257812 302.46939453 -132.14257812 301.80939453 -132.14257812 301.12939453 C-132.80257812 301.12939453 -133.46257812 301.12939453 -134.14257812 301.12939453 C-134.47257812 299.47939453 -134.80257812 297.82939453 -135.14257812 296.12939453 C-136.13257813 295.79939453 -137.12257812 295.46939453 -138.14257812 295.12939453 C-139.33007812 292.06689453 -139.33007812 292.06689453 -140.14257812 289.12939453 C-140.80257812 289.12939453 -141.46257812 289.12939453 -142.14257812 289.12939453 C-142.47257812 287.47939453 -142.80257812 285.82939453 -143.14257812 284.12939453 C-143.80257812 284.12939453 -144.46257812 284.12939453 -145.14257812 284.12939453 C-145.47257812 282.47939453 -145.80257812 280.82939453 -146.14257812 279.12939453 C-146.80257812 279.12939453 -147.46257812 279.12939453 -148.14257812 279.12939453 C-150.17693343 275.39974314 -151.14257812 273.46034411 -151.14257812 269.12939453 C-151.80257812 269.12939453 -152.46257812 269.12939453 -153.14257812 269.12939453 C-153.47257812 267.14939453 -153.80257812 265.16939453 -154.14257812 263.12939453 C-154.80257812 263.12939453 -155.46257812 263.12939453 -156.14257812 263.12939453 C-156.47257812 260.48939453 -156.80257812 257.84939453 -157.14257812 255.12939453 C-157.80257812 255.12939453 -158.46257812 255.12939453 -159.14257812 255.12939453 C-162.58676947 245.71937175 -162.58676947 245.71937175 -162.14257812 241.12939453 C-162.80257812 241.12939453 -163.46257812 241.12939453 -164.14257812 241.12939453 C-164.27535156 240.27474609 -164.408125 239.42009766 -164.54492188 238.53955078 C-164.72152344 237.43482422 -164.898125 236.33009766 -165.08007812 235.19189453 C-165.34111328 233.53867187 -165.34111328 233.53867187 -165.60742188 231.85205078 C-165.86102948 229.22512524 -165.86102948 229.22512524 -167.14257812 228.12939453 C-167.51806586 225.31617005 -167.84915535 222.51379633 -168.14257812 219.69189453 C-168.51144999 214.24570864 -168.51144999 214.24570864 -170.14257812 209.12939453 C-170.23670274 207.75107182 -170.27051379 206.36834846 -170.27197266 204.98681641 C-170.27512482 204.13253052 -170.27827698 203.27824463 -170.28152466 202.39807129 C-170.27950043 201.47409546 -170.2774762 200.55011963 -170.27539062 199.59814453 C-170.27634735 198.65128784 -170.27730408 197.70443115 -170.27828979 196.72888184 C-170.27897099 194.72485284 -170.27712093 192.72082164 -170.27294922 190.71679688 C-170.26760012 187.64203963 -170.27289627 184.56742846 -170.27929688 181.49267578 C-170.27863608 179.54866504 -170.2773549 177.60465439 -170.27539062 175.66064453 C-170.27741486 174.7366687 -170.27943909 173.81269287 -170.28152466 172.86071777 C-170.2783725 172.00643188 -170.27522034 171.152146 -170.27197266 170.27197266 C-170.27117706 169.51855591 -170.27038147 168.76513916 -170.26956177 167.9888916 C-170.14257812 166.12939453 -170.14257812 166.12939453 -169.14257812 164.12939453 C-168.70199128 160.65283109 -168.32823403 157.1766663 -167.98046875 153.68994141 C-167.47267833 148.97946282 -166.54040947 144.67655674 -165.14257812 140.12939453 C-164.77987224 138.13451219 -164.43617113 136.13561343 -164.14257812 134.12939453 C-163.48257813 134.12939453 -162.82257813 134.12939453 -162.14257812 134.12939453 C-162.09359375 133.53771484 -162.04460937 132.94603516 -161.99414062 132.33642578 C-161.57800946 127.93834982 -161.09292217 124.16010556 -159.14257812 120.12939453 C-158.48257813 120.12939453 -157.82257813 120.12939453 -157.14257812 120.12939453 C-156.81257813 117.48939453 -156.48257813 114.84939453 -156.14257812 112.12939453 C-155.48257813 112.12939453 -154.82257813 112.12939453 -154.14257812 112.12939453 C-153.81257813 110.14939453 -153.48257813 108.16939453 -153.14257812 106.12939453 C-152.48257813 106.12939453 -151.82257813 106.12939453 -151.14257812 106.12939453 C-151.01882812 105.22189453 -150.89507812 104.31439453 -150.76757812 103.37939453 C-150.22148135 100.53969131 -149.5699401 98.60348862 -148.14257812 96.12939453 C-147.48257813 96.12939453 -146.82257813 96.12939453 -146.14257812 96.12939453 C-145.81257813 94.47939453 -145.48257813 92.82939453 -145.14257812 91.12939453 C-144.48257813 91.12939453 -143.82257813 91.12939453 -143.14257812 91.12939453 C-142.81257813 89.47939453 -142.48257813 87.82939453 -142.14257812 86.12939453 C-141.48257813 86.12939453 -140.82257813 86.12939453 -140.14257812 86.12939453 C-139.87445313 85.16001953 -139.60632813 84.19064453 -139.33007812 83.19189453 C-138.93820313 82.18126953 -138.54632813 81.17064453 -138.14257812 80.12939453 C-137.15257812 79.79939453 -136.16257813 79.46939453 -135.14257812 79.12939453 C-134.81257813 77.47939453 -134.48257813 75.82939453 -134.14257812 74.12939453 C-133.48257813 74.12939453 -132.82257813 74.12939453 -132.14257812 74.12939453 C-132.14257812 73.46939453 -132.14257812 72.80939453 -132.14257812 72.12939453 C-130.83127891 70.77438534 -129.49566125 69.4426811 -128.14257812 68.12939453 C-127.15257813 66.64439453 -127.15257813 66.64439453 -126.14257812 65.12939453 C-125.48257813 65.12939453 -124.82257813 65.12939453 -124.14257812 65.12939453 C-124.04976562 64.26314453 -124.04976562 64.26314453 -123.95507812 63.37939453 C-122.82387023 60.24681882 -120.76310012 59.09478603 -118.14257812 57.12939453 C-117.64757812 56.13939453 -117.64757812 56.13939453 -117.14257812 55.12939453 C-116.48257813 55.12939453 -115.82257813 55.12939453 -115.14257812 55.12939453 C-115.14257812 54.46939453 -115.14257812 53.80939453 -115.14257812 53.12939453 C-113.46289062 51.40283203 -113.46289062 51.40283203 -111.26757812 49.50439453 C-110.54828125 48.87275391 -109.82898438 48.24111328 -109.08789062 47.59033203 C-107.14257812 46.12939453 -107.14257812 46.12939453 -105.14257812 46.12939453 C-105.14257812 45.46939453 -105.14257812 44.80939453 -105.14257812 44.12939453 C-101.68103966 41.12939453 -101.68103966 41.12939453 -99.14257812 41.12939453 C-99.14257812 40.46939453 -99.14257812 39.80939453 -99.14257812 39.12939453 C-97.82257813 38.79939453 -96.50257813 38.46939453 -95.14257812 38.12939453 C-95.14257812 37.46939453 -95.14257812 36.80939453 -95.14257812 36.12939453 C-93.82257813 35.79939453 -92.50257813 35.46939453 -91.14257812 35.12939453 C-91.14257812 34.46939453 -91.14257812 33.80939453 -91.14257812 33.12939453 C-90.15257812 33.12939453 -89.16257812 33.12939453 -88.14257812 33.12939453 C-88.14257812 32.46939453 -88.14257812 31.80939453 -88.14257812 31.12939453 C-86.82257813 30.79939453 -85.50257813 30.46939453 -84.14257812 30.12939453 C-84.14257812 29.46939453 -84.14257812 28.80939453 -84.14257812 28.12939453 C-82.49257812 27.79939453 -80.84257812 27.46939453 -79.14257812 27.12939453 C-79.14257812 26.46939453 -79.14257812 25.80939453 -79.14257812 25.12939453 C-73.51757812 22.12939453 -73.51757812 22.12939453 -70.14257812 22.12939453 C-70.14257812 21.46939453 -70.14257812 20.80939453 -70.14257812 20.12939453 C-68.16257812 19.79939453 -66.18257813 19.46939453 -64.14257812 19.12939453 C-64.14257812 18.46939453 -64.14257812 17.80939453 -64.14257812 17.12939453 C-61.91493824 16.31249276 -59.68562953 15.50077581 -57.45507812 14.69189453 C-56.82923828 14.46179688 -56.20339844 14.23169922 -55.55859375 13.99462891 C-52.11015505 12.74885786 -48.76123022 11.73135004 -45.14257812 11.12939453 C-45.14257812 10.46939453 -45.14257812 9.80939453 -45.14257812 9.12939453 C-40.68757813 8.63439453 -40.68757813 8.63439453 -36.14257812 8.12939453 C-36.14257812 7.46939453 -36.14257812 6.80939453 -36.14257812 6.12939453 C-34.86060547 5.93023437 -34.86060547 5.93023437 -33.55273438 5.72705078 C-32.44800781 5.55044922 -31.34328125 5.37384766 -30.20507812 5.19189453 C-28.55185547 4.93085937 -28.55185547 4.93085937 -26.86523438 4.66455078 C-24.23830884 4.41094317 -24.23830884 4.41094317 -23.14257812 3.12939453 C-20.32935364 2.7539068 -17.52697993 2.4228173 -14.70507812 2.12939453 C-9.68102864 1.60443263 -4.95264877 0.0052299 0 0 Z " fill="#FFFFFF" transform="translate(238.142578125,67.87060546875)"/>
<path d="M0 0 C24.09 0 48.18 0 73 0 C73 0.66 73 1.32 73 2 C78.28 2.33 83.56 2.66 89 3 C89 3.33 89 3.66 89 4 C90.98 4.33 92.96 4.66 95 5 C95 5.66 95 6.32 95 7 C95.99580078 7.07347656 95.99580078 7.07347656 97.01171875 7.1484375 C101.7199525 7.54709087 105.66393247 8.0177977 110 10 C110.86625 10.165 111.7325 10.33 112.625 10.5 C115 11 115 11 118 13 C120.11280345 13.63292383 120.11280345 13.63292383 122 14 C122 14.66 122 15.32 122 16 C123.32 16 124.64 16 126 16 C126 16.66 126 17.32 126 18 C128.31 18.33 130.62 18.66 133 19 C133 19.66 133 20.32 133 21 C134.98 21.33 136.96 21.66 139 22 C139 22.66 139 23.32 139 24 C139.7425 24.12375 140.485 24.2475 141.25 24.375 C143.80141485 24.95486701 145.7267573 25.73708739 148 27 C148 27.66 148 28.32 148 29 C149.65 29.33 151.3 29.66 153 30 C153 30.66 153 31.32 153 32 C154.65 32.33 156.3 32.66 158 33 C158 33.66 158 34.32 158 35 C158.99 35 159.98 35 161 35 C161 35.66 161 36.32 161 37 C161.7425 37.28875 162.485 37.5775 163.25 37.875 C165.56739797 38.82302644 167.77917115 39.84845911 170 41 C170 41.66 170 42.32 170 43 C171.32 43.33 172.64 43.66 174 44 C174 44.66 174 45.32 174 46 C174.556875 46.2475 175.11375 46.495 175.6875 46.75 C178.42410913 48.22924818 180.67650869 49.93467439 183 52 C183 52.66 183 53.32 183 54 C184.32 54.33 185.64 54.66 187 55 C187 55.66 187 56.32 187 57 C187.66 57 188.32 57 189 57 C190.625 58.375 190.625 58.375 192 60 C192 60.66 192 61.32 192 62 C192.99 62.33 193.98 62.66 195 63 C195 63.66 195 64.32 195 65 C195.99 65.33 196.98 65.66 198 66 C198 66.66 198 67.32 198 68 C198.66 68 199.32 68 200 68 C205 73.47619048 205 73.47619048 205 76 C205.66 76 206.32 76 207 76 C208.5078125 77.4609375 208.5078125 77.4609375 210.125 79.375 C210.93324219 80.31472656 210.93324219 80.31472656 211.7578125 81.2734375 C213 83 213 83 213 85 C213.66 85.33 214.32 85.66 215 86 C216.33333333 88 217.66666667 90 219 92 C219.66 92.33 220.32 92.66 221 93 C221.625 95.5625 221.625 95.5625 222 98 C222.66 98 223.32 98 224 98 C224 98.99 224 99.98 224 101 C224.66 101 225.32 101 226 101 C226.33 102.65 226.66 104.3 227 106 C227.99 106.33 228.98 106.66 230 107 C230 108.32 230 109.64 230 111 C230.66 111 231.32 111 232 111 C235 116.625 235 116.625 235 120 C235.66 120 236.32 120 237 120 C237.67305018 121.60149886 238.33822227 123.20631029 239 124.8125 C239.37125 125.70582031 239.7425 126.59914063 240.125 127.51953125 C241 130 241 130 241 133 C241.66 133 242.32 133 243 133 C243.50615298 134.26839526 244.00469099 135.53983102 244.5 136.8125 C244.91765625 137.87404297 244.91765625 137.87404297 245.34375 138.95703125 C246 141 246 141 246 144 C246.66 144 247.32 144 248 144 C248.33 146.97 248.66 149.94 249 153 C249.66 153 250.32 153 251 153 C251.12117188 153.64066406 251.24234375 154.28132812 251.3671875 154.94140625 C252.35679227 160.04928933 253.48510951 165.02250269 255 170 C255.33 170 255.66 170 256 170 C256.91657981 175.38490641 257.11138159 180.54230189 257 186 C257.66 186 258.32 186 259 186 C259.90431803 193.42584969 260.14687269 200.74264609 260.1328125 208.21875 C260.13424759 209.92653625 260.13424759 209.92653625 260.13571167 211.66882324 C260.13638843 214.06225643 260.13456953 216.4556915 260.13037109 218.84912109 C260.12501574 222.4893002 260.13033334 226.12935593 260.13671875 229.76953125 C260.13605788 232.1067711 260.13477653 234.44401088 260.1328125 236.78125 C260.13483673 237.8575769 260.13686096 238.93390381 260.13894653 240.04284668 C260.11938855 246.42162295 259.77121543 252.66712849 259 259 C258.34 259 257.68 259 257 259 C257.01160156 259.56847656 257.02320313 260.13695312 257.03515625 260.72265625 C257.09223194 265.60670484 256.81956772 270.18503965 256 275 C255.67 275 255.34 275 255 275 C253.68 280.61 252.36 286.22 251 292 C250.34 292 249.68 292 249 292 C248.67 294.97 248.34 297.94 248 301 C247.34 301 246.68 301 246 301 C245.87625 302.0725 245.7525 303.145 245.625 304.25 C245.10356064 307.37863615 244.59911746 309.33480424 243 312 C242.34 312 241.68 312 241 312 C240.896875 313.03125 240.79375 314.0625 240.6875 315.125 C240.00872203 318.95083945 238.88841205 321.63370025 237 325 C236.34 325 235.68 325 235 325 C234.87625 325.7425 234.7525 326.485 234.625 327.25 C234.04513299 329.80141485 233.26291261 331.7267573 232 334 C231.34 334 230.68 334 230 334 C229.67 335.65 229.34 337.3 229 339 C228.34 339 227.68 339 227 339 C226.67 340.65 226.34 342.3 226 344 C225.34 344 224.68 344 224 344 C224 344.99 224 345.98 224 347 C223.34 347 222.68 347 222 347 C221.9175 347.7425 221.835 348.485 221.75 349.25 C220.84809192 352.55699631 219.46486192 353.68452365 217 356 C215.76487921 358.13309192 215.76487921 358.13309192 215 360 C214.34 360 213.68 360 213 360 C212.62875 360.8353125 212.62875 360.8353125 212.25 361.6875 C210.77075182 364.42410913 209.06532561 366.67650869 207 369 C206.34 369 205.68 369 205 369 C204.731875 369.763125 204.46375 370.52625 204.1875 371.3125 C203.04865495 373.88988618 202.18583329 375.26954864 200 377 C199.34 377 198.68 377 198 377 C197.67 377.99 197.34 378.98 197 380 C196.34 380 195.68 380 195 380 C194.67 380.99 194.34 381.98 194 383 C193.34 383 192.68 383 192 383 C192 383.66 192 384.32 192 385 C190.625 386.625 190.625 386.625 189 388 C188.34 388 187.68 388 187 388 C187 388.66 187 389.32 187 390 C185.68 390.33 184.36 390.66 183 391 C183 391.66 183 392.32 183 393 C181.5390625 394.5078125 181.5390625 394.5078125 179.625 396.125 C178.99851562 396.66382813 178.37203125 397.20265625 177.7265625 397.7578125 C176 399 176 399 174 399 C174 399.66 174 400.32 174 401 C172.68 401.33 171.36 401.66 170 402 C170 402.66 170 403.32 170 404 C163.25 408 163.25 408 161 408 C161 408.66 161 409.32 161 410 C160.01 410 159.02 410 158 410 C158 410.66 158 411.32 158 412 C156.35 412.33 154.7 412.66 153 413 C153 413.66 153 414.32 153 415 C151.35 415.33 149.7 415.66 148 416 C148 416.66 148 417.32 148 418 C142.375 421 142.375 421 139 421 C139 421.66 139 422.32 139 423 C137.02 423.33 135.04 423.66 133 424 C133 424.66 133 425.32 133 426 C130.69 426.33 128.38 426.66 126 427 C126 427.66 126 428.32 126 429 C124.68 429 123.36 429 122 429 C122 429.66 122 430.32 122 431 C119.69 431.66 117.38 432.32 115 433 C115 433.33 115 433.66 115 434 C114.41992188 434.12117188 113.83984375 434.24234375 113.2421875 434.3671875 C109.65969845 435.13570825 106.21760895 435.92467382 102.75 437.125 C99.99303928 438.00221477 97.87094768 438.16887928 95 438 C95 438.66 95 439.32 95 440 C93.02 440.33 91.04 440.66 89 441 C89 441.33 89 441.66 89 442 C83.72 442.33 78.44 442.66 73 443 C73 443.66 73 444.32 73 445 C65.57415031 445.90431803 58.25735391 446.14687269 50.78125 446.1328125 C49.64272583 446.13376923 48.50420166 446.13472595 47.33117676 446.13571167 C44.93774357 446.13638843 42.5443085 446.13456953 40.15087891 446.13037109 C36.5106998 446.12501574 32.87064407 446.13033334 29.23046875 446.13671875 C26.8932289 446.13605788 24.55598912 446.13477653 22.21875 446.1328125 C21.1424231 446.13483673 20.06609619 446.13686096 18.95715332 446.13894653 C12.57837705 446.11938855 6.33287151 445.77121543 0 445 C0 444.34 0 443.68 0 443 C-5.28 442.67 -10.56 442.34 -16 442 C-16 441.67 -16 441.34 -16 441 C-17.98 440.67 -19.96 440.34 -22 440 C-22 439.34 -22 438.68 -22 438 C-22.66386719 437.95101563 -23.32773438 437.90203125 -24.01171875 437.8515625 C-28.7199525 437.45290913 -32.66393247 436.9822023 -37 435 C-37.86625 434.835 -38.7325 434.67 -39.625 434.5 C-42 434 -42 434 -45 432 C-47.11280345 431.36707617 -47.11280345 431.36707617 -49 431 C-49 430.34 -49 429.68 -49 429 C-50.32 429 -51.64 429 -53 429 C-53 428.34 -53 427.68 -53 427 C-55.31 426.67 -57.62 426.34 -60 426 C-60 425.34 -60 424.68 -60 424 C-61.98 423.67 -63.96 423.34 -66 423 C-66 422.34 -66 421.68 -66 421 C-66.7425 420.87625 -67.485 420.7525 -68.25 420.625 C-70.80141485 420.04513299 -72.7267573 419.26291261 -75 418 C-75 417.34 -75 416.68 -75 416 C-76.65 415.67 -78.3 415.34 -80 415 C-80 414.34 -80 413.68 -80 413 C-81.65 412.67 -83.3 412.34 -85 412 C-85 411.34 -85 410.68 -85 410 C-85.99 410 -86.98 410 -88 410 C-88 409.34 -88 408.68 -88 408 C-88.7425 407.71125 -89.485 407.4225 -90.25 407.125 C-92.56739797 406.17697356 -94.77917115 405.15154089 -97 404 C-97 403.34 -97 402.68 -97 402 C-98.32 401.67 -99.64 401.34 -101 401 C-101 400.34 -101 399.68 -101 399 C-101.556875 398.7525 -102.11375 398.505 -102.6875 398.25 C-105.42410913 396.77075182 -107.67650869 395.06532561 -110 393 C-110 392.34 -110 391.68 -110 391 C-111.32 390.67 -112.64 390.34 -114 390 C-114 389.34 -114 388.68 -114 388 C-114.66 388 -115.32 388 -116 388 C-117.625 386.625 -117.625 386.625 -119 385 C-119 384.34 -119 383.68 -119 383 C-119.99 382.67 -120.98 382.34 -122 382 C-122 381.34 -122 380.68 -122 380 C-122.99 379.67 -123.98 379.34 -125 379 C-125 378.34 -125 377.68 -125 377 C-125.66 377 -126.32 377 -127 377 C-132 371.52380952 -132 371.52380952 -132 369 C-132.66 369 -133.32 369 -134 369 C-135.5078125 367.5390625 -135.5078125 367.5390625 -137.125 365.625 C-137.66382813 364.99851562 -138.20265625 364.37203125 -138.7578125 363.7265625 C-140 362 -140 362 -140 360 C-140.66 359.67 -141.32 359.34 -142 359 C-143.33333333 357 -144.66666667 355 -146 353 C-146.66 352.67 -147.32 352.34 -148 352 C-148.625 349.4375 -148.625 349.4375 -149 347 C-149.66 347 -150.32 347 -151 347 C-151 346.01 -151 345.02 -151 344 C-151.66 344 -152.32 344 -153 344 C-153.33 342.35 -153.66 340.7 -154 339 C-154.99 338.67 -155.98 338.34 -157 338 C-157 336.68 -157 335.36 -157 334 C-157.66 334 -158.32 334 -159 334 C-162 328.375 -162 328.375 -162 325 C-162.66 325 -163.32 325 -164 325 C-164.67305018 323.39850114 -165.33822227 321.79368971 -166 320.1875 C-166.556875 318.84751953 -166.556875 318.84751953 -167.125 317.48046875 C-168 315 -168 315 -168 312 C-168.66 312 -169.32 312 -170 312 C-170.50615298 310.73160474 -171.00469099 309.46016898 -171.5 308.1875 C-171.7784375 307.47980469 -172.056875 306.77210938 -172.34375 306.04296875 C-173 304 -173 304 -173 301 C-173.66 301 -174.32 301 -175 301 C-175.33 298.03 -175.66 295.06 -176 292 C-176.66 292 -177.32 292 -178 292 C-178.12117188 291.35933594 -178.24234375 290.71867187 -178.3671875 290.05859375 C-179.35679227 284.95071067 -180.48510951 279.97749731 -182 275 C-182.33 275 -182.66 275 -183 275 C-183.91657981 269.61509359 -184.11138159 264.45769811 -184 259 C-184.66 259 -185.32 259 -186 259 C-186 234.91 -186 210.82 -186 186 C-185.34 186 -184.68 186 -184 186 C-184.01160156 185.43152344 -184.02320313 184.86304688 -184.03515625 184.27734375 C-184.09223194 179.39329516 -183.81956772 174.81496035 -183 170 C-182.67 170 -182.34 170 -182 170 C-180.68 164.39 -179.36 158.78 -178 153 C-177.34 153 -176.68 153 -176 153 C-175.67 150.03 -175.34 147.06 -175 144 C-174.34 144 -173.68 144 -173 144 C-172.814375 142.39125 -172.814375 142.39125 -172.625 140.75 C-172.10356064 137.62136385 -171.59911746 135.66519576 -170 133 C-169.34 133 -168.68 133 -168 133 C-167.896875 131.96875 -167.79375 130.9375 -167.6875 129.875 C-167.00872203 126.04916055 -165.88841205 123.36629975 -164 120 C-163.34 120 -162.68 120 -162 120 C-161.814375 118.88625 -161.814375 118.88625 -161.625 117.75 C-161.04513299 115.19858515 -160.26291261 113.2732427 -159 111 C-158.34 111 -157.68 111 -157 111 C-156.67 109.35 -156.34 107.7 -156 106 C-155.34 106 -154.68 106 -154 106 C-153.67 104.35 -153.34 102.7 -153 101 C-152.34 101 -151.68 101 -151 101 C-151 100.01 -151 99.02 -151 98 C-150.34 98 -149.68 98 -149 98 C-148.9175 97.2575 -148.835 96.515 -148.75 95.75 C-147.84809192 92.44300369 -146.46486192 91.31547635 -144 89 C-142.76487921 86.86690808 -142.76487921 86.86690808 -142 85 C-141.34 85 -140.68 85 -140 85 C-139.62875 84.1646875 -139.62875 84.1646875 -139.25 83.3125 C-137.77075182 80.57589087 -136.06532561 78.32349131 -134 76 C-133.34 76 -132.68 76 -132 76 C-131.731875 75.236875 -131.46375 74.47375 -131.1875 73.6875 C-130.04865495 71.11011382 -129.18583329 69.73045136 -127 68 C-126.34 68 -125.68 68 -125 68 C-124.505 66.515 -124.505 66.515 -124 65 C-123.34 65 -122.68 65 -122 65 C-121.505 63.515 -121.505 63.515 -121 62 C-120.34 62 -119.68 62 -119 62 C-119 61.34 -119 60.68 -119 60 C-117.625 58.375 -117.625 58.375 -116 57 C-115.34 57 -114.68 57 -114 57 C-114 56.34 -114 55.68 -114 55 C-112.68 54.67 -111.36 54.34 -110 54 C-110 53.34 -110 52.68 -110 52 C-108.5390625 50.4921875 -108.5390625 50.4921875 -106.625 48.875 C-105.99851562 48.33617187 -105.37203125 47.79734375 -104.7265625 47.2421875 C-103 46 -103 46 -101 46 C-101 45.34 -101 44.68 -101 44 C-99.68 43.67 -98.36 43.34 -97 43 C-97 42.34 -97 41.68 -97 41 C-90.25 37 -90.25 37 -88 37 C-88 36.34 -88 35.68 -88 35 C-87.01 35 -86.02 35 -85 35 C-85 34.34 -85 33.68 -85 33 C-83.35 32.67 -81.7 32.34 -80 32 C-80 31.34 -80 30.68 -80 30 C-78.35 29.67 -76.7 29.34 -75 29 C-75 28.34 -75 27.68 -75 27 C-69.375 24 -69.375 24 -66 24 C-66 23.34 -66 22.68 -66 22 C-64.02 21.67 -62.04 21.34 -60 21 C-60 20.34 -60 19.68 -60 19 C-57.69 18.67 -55.38 18.34 -53 18 C-53 17.34 -53 16.68 -53 16 C-51.68 16 -50.36 16 -49 16 C-49 15.34 -49 14.68 -49 14 C-46.69 13.34 -44.38 12.68 -42 12 C-42 11.67 -42 11.34 -42 11 C-41.12988281 10.81824219 -41.12988281 10.81824219 -40.2421875 10.6328125 C-36.65969845 9.86429175 -33.21760895 9.07532618 -29.75 7.875 C-26.99303928 6.99778523 -24.87094768 6.83112072 -22 7 C-22 6.34 -22 5.68 -22 5 C-20.02 4.67 -18.04 4.34 -16 4 C-16 3.67 -16 3.34 -16 3 C-8.08 2.505 -8.08 2.505 0 2 C0 1.34 0 0.68 0 0 Z M14 19 C14 19.66 14 20.32 14 21 C13.21496094 20.98839844 12.42992187 20.97679688 11.62109375 20.96484375 C5.97655245 20.91636303 0.54616212 20.89076758 -5 22 C-5.33 22.33 -5.66 22.66 -6 23 C-7.70100391 23.35020669 -9.41144686 23.65502053 -11.125 23.9375 C-15.53490378 24.70218996 -19.72938925 25.67136555 -24 27 C-24 27.66 -24 28.32 -24 29 C-28.455 29.495 -28.455 29.495 -33 30 C-33 30.66 -33 31.32 -33 32 C-35.64 32.33 -38.28 32.66 -41 33 C-41 33.66 -41 34.32 -41 35 C-42.32 35 -43.64 35 -45 35 C-45 35.66 -45 36.32 -45 37 C-47.31 37.33 -49.62 37.66 -52 38 C-52 38.66 -52 39.32 -52 40 C-53.98 40.33 -55.96 40.66 -58 41 C-58 41.66 -58 42.32 -58 43 C-59.051875 43.12375 -59.051875 43.12375 -60.125 43.25 C-63.65698979 44.17138864 -66.01928357 45.92645814 -69 48 C-70.485 48.495 -70.485 48.495 -72 49 C-72 49.66 -72 50.32 -72 51 C-73.65 51.33 -75.3 51.66 -77 52 C-77 52.66 -77 53.32 -77 54 C-79 55 -81 56 -83 57 C-83 57.66 -83 58.32 -83 59 C-84.65 59.33 -86.3 59.66 -88 60 C-88 60.66 -88 61.32 -88 62 C-91 63.5 -91 63.5 -94 65 C-94 65.66 -94 66.32 -94 67 C-95.485 67.495 -95.485 67.495 -97 68 C-97 68.66 -97 69.32 -97 70 C-98.32 70.33 -99.64 70.66 -101 71 C-101 71.66 -101 72.32 -101 73 C-102.485 73.495 -102.485 73.495 -104 74 C-104 74.66 -104 75.32 -104 76 C-104.66 76 -105.32 76 -106 76 C-107.35386936 77.65002828 -108.68678142 79.3174387 -110 81 C-110.99 81.495 -110.99 81.495 -112 82 C-112 82.66 -112 83.32 -112 84 C-112.99 84.33 -113.98 84.66 -115 85 C-115.165 85.66 -115.33 86.32 -115.5 87 C-115.665 87.66 -115.83 88.32 -116 89 C-116.99 89.33 -117.98 89.66 -119 90 C-119.33 90.825 -119.66 91.65 -120 92.5 C-120.33 93.325 -120.66 94.15 -121 95 C-121.99 95.33 -122.98 95.66 -124 96 C-124 96.66 -124 97.32 -124 98 C-124.66 98 -125.32 98 -126 98 C-126 98.99 -126 99.98 -126 101 C-126.66 101 -127.32 101 -128 101 C-130.96235695 104.63323689 -130.96235695 104.63323689 -132 109 C-132.99 109.495 -132.99 109.495 -134 110 C-134.65213292 112.02463255 -134.65213292 112.02463255 -135 114 C-135.66 114 -136.32 114 -137 114 C-137 114.99 -137 115.98 -137 117 C-137.99 117.495 -137.99 117.495 -139 118 C-142.14256595 122.66512231 -142.14256595 122.66512231 -143 128 C-143.66 128 -144.32 128 -145 128 C-145.33 129.98 -145.66 131.96 -146 134 C-146.66 134 -147.32 134 -148 134 C-148.495 135.0725 -148.99 136.145 -149.5 137.25 C-149.7784375 137.85328125 -150.056875 138.4565625 -150.34375 139.078125 C-151.21542924 141.29242836 -151.21542924 141.29242836 -151 145 C-151.66 145 -152.32 145 -153 145 C-153.33 147.64 -153.66 150.28 -154 153 C-154.66 153 -155.32 153 -156 153 C-156.10957031 153.56847656 -156.21914062 154.13695312 -156.33203125 154.72265625 C-157.10807409 158.5019218 -157.92540431 161.83215971 -159.5 165.375 C-161.19956683 169.4822865 -161.89093282 173.36793586 -162.5703125 177.7421875 C-163 180 -163 180 -164 181 C-165.05873075 187.35238448 -165.10635926 193.57117333 -165 200 C-165.66 200 -166.32 200 -167 200 C-167 214.85 -167 229.7 -167 245 C-166.34 245 -165.68 245 -165 245 C-165.01160156 245.70125 -165.02320313 246.4025 -165.03515625 247.125 C-165.11520173 255.5412102 -164.47171456 262.89826895 -162 271 C-161.25331212 273.78201453 -160.51549016 276.56623842 -159.78125 279.3515625 C-159.00546729 281.9814659 -158.02634098 284.45959401 -157 287 C-156.63128912 288.65919896 -156.28718326 290.3247643 -156 292 C-155.34 292 -154.68 292 -154 292 C-153.67 294.64 -153.34 297.28 -153 300 C-152.34 300 -151.68 300 -151 300 C-150.87625 300.886875 -150.7525 301.77375 -150.625 302.6875 C-150.05587264 305.70387502 -149.23385564 308.20326054 -148 311 C-147.34 311 -146.68 311 -146 311 C-145.67 312.98 -145.34 314.96 -145 317 C-144.34 317 -143.68 317 -143 317 C-142.896875 317.721875 -142.79375 318.44375 -142.6875 319.1875 C-141.93217477 322.27746686 -140.80862024 324.39558686 -139 327 C-138.34 327.33 -137.68 327.66 -137 328 C-137 328.99 -137 329.98 -137 331 C-136.34 331 -135.68 331 -135 331 C-134.67 332.65 -134.34 334.3 -134 336 C-133.34 336 -132.68 336 -132 336 C-130.66666667 338.66666667 -129.33333333 341.33333333 -128 344 C-127.34 344 -126.68 344 -126 344 C-126 344.99 -126 345.98 -126 347 C-125.34 347 -124.68 347 -124 347 C-123.505 348.485 -123.505 348.485 -123 350 C-122.34 350 -121.68 350 -121 350 C-120.5978125 351.2065625 -120.5978125 351.2065625 -120.1875 352.4375 C-119.795625 353.283125 -119.40375 354.12875 -119 355 C-118.01 355.33 -117.02 355.66 -116 356 C-114.8125 358.5625 -114.8125 358.5625 -114 361 C-113.34 361 -112.68 361 -112 361 C-112 361.66 -112 362.32 -112 363 C-110.34997172 364.35386936 -108.6825613 365.68678142 -107 367 C-106.67 367.66 -106.34 368.32 -106 369 C-105.34 369 -104.68 369 -104 369 C-103.505 370.485 -103.505 370.485 -103 372 C-102.34 372 -101.68 372 -101 372 C-101 372.66 -101 373.32 -101 374 C-100.360625 374.103125 -99.72125 374.20625 -99.0625 374.3125 C-98.0415625 374.6528125 -98.0415625 374.6528125 -97 375 C-96.505 376.485 -96.505 376.485 -96 378 C-95.34 378 -94.68 378 -94 378 C-94 378.66 -94 379.32 -94 380 C-91.36315253 382.39820305 -91.36315253 382.39820305 -88 383 C-88 383.66 -88 384.32 -88 385 C-86.35 385.33 -84.7 385.66 -83 386 C-83 386.66 -83 387.32 -83 388 C-80.36315253 390.39820305 -80.36315253 390.39820305 -77 391 C-77 391.66 -77 392.32 -77 393 C-75.35 393.33 -73.7 393.66 -72 394 C-72 394.66 -72 395.32 -72 396 C-71.2575 396.268125 -70.515 396.53625 -69.75 396.8125 C-67 398 -67 398 -65 399.5625 C-62.67537209 401.23332631 -60.80890941 401.60987369 -58 402 C-58 402.66 -58 403.32 -58 404 C-56.02 404.33 -54.04 404.66 -52 405 C-52 405.66 -52 406.32 -52 407 C-49.69 407.33 -47.38 407.66 -45 408 C-45 408.66 -45 409.32 -45 410 C-43.68 410 -42.36 410 -41 410 C-41 410.66 -41 411.32 -41 412 C-38.36 412.33 -35.72 412.66 -33 413 C-33 413.66 -33 414.32 -33 415 C-30.03 415.33 -27.06 415.66 -24 416 C-24 416.66 -24 417.32 -24 418 C-16.52364015 420.20194688 -16.52364015 420.20194688 -8.875 421.625 C-6 422 -6 422 -5 423 C1.30848124 424.26169625 7.58837814 424.09475303 14 424 C14 424.66 14 425.32 14 426 C28.85 426 43.7 426 59 426 C59 425.34 59 424.68 59 424 C59.78503906 424.01160156 60.57007813 424.02320313 61.37890625 424.03515625 C67.02344755 424.08363697 72.45383788 424.10923242 78 423 C78.33 422.67 78.66 422.34 79 422 C80.70100391 421.64979331 82.41144686 421.34497947 84.125 421.0625 C88.53490378 420.29781004 92.72938925 419.32863445 97 418 C97 417.34 97 416.68 97 416 C99.97 415.67 102.94 415.34 106 415 C106 414.34 106 413.68 106 413 C108.64 412.67 111.28 412.34 114 412 C114 411.34 114 410.68 114 410 C115.32 410 116.64 410 118 410 C118 409.34 118 408.68 118 408 C120.31 407.67 122.62 407.34 125 407 C125 406.34 125 405.68 125 405 C126.98 404.67 128.96 404.34 131 404 C131 403.34 131 402.68 131 402 C131.70125 401.9175 132.4025 401.835 133.125 401.75 C136.65698979 400.82861136 139.01928357 399.07354186 142 397 C142.99 396.67 143.98 396.34 145 396 C145 395.34 145 394.68 145 394 C146.65 393.67 148.3 393.34 150 393 C150 392.34 150 391.68 150 391 C152 390 154 389 156 388 C156 387.34 156 386.68 156 386 C157.65 385.67 159.3 385.34 161 385 C161 384.34 161 383.68 161 383 C164 381.5 164 381.5 167 380 C167 379.34 167 378.68 167 378 C167.99 377.67 168.98 377.34 170 377 C170 376.34 170 375.68 170 375 C171.32 374.67 172.64 374.34 174 374 C174 373.34 174 372.68 174 372 C174.99 371.67 175.98 371.34 177 371 C177 370.34 177 369.68 177 369 C177.66 369 178.32 369 179 369 C180.35386936 367.34997172 181.68678142 365.6825613 183 364 C183.66 363.67 184.32 363.34 185 363 C185 362.34 185 361.68 185 361 C185.99 360.67 186.98 360.34 188 360 C188.165 359.34 188.33 358.68 188.5 358 C188.665 357.34 188.83 356.68 189 356 C189.99 355.67 190.98 355.34 192 355 C192.33 354.175 192.66 353.35 193 352.5 C193.33 351.675 193.66 350.85 194 350 C194.99 349.67 195.98 349.34 197 349 C197 348.34 197 347.68 197 347 C197.66 347 198.32 347 199 347 C199 346.01 199 345.02 199 344 C199.66 344 200.32 344 201 344 C203.96235695 340.36676311 203.96235695 340.36676311 205 336 C205.66 335.67 206.32 335.34 207 335 C207.65213292 332.97536745 207.65213292 332.97536745 208 331 C208.66 331 209.32 331 210 331 C210 330.01 210 329.02 210 328 C210.66 327.67 211.32 327.34 212 327 C215.14256595 322.33487769 215.14256595 322.33487769 216 317 C216.66 317 217.32 317 218 317 C218.33 315.02 218.66 313.04 219 311 C219.66 311 220.32 311 221 311 C221.7425 309.39125 221.7425 309.39125 222.5 307.75 C222.7784375 307.14671875 223.056875 306.5434375 223.34375 305.921875 C224.21542924 303.70757164 224.21542924 303.70757164 224 300 C224.66 300 225.32 300 226 300 C226.33 297.36 226.66 294.72 227 292 C227.66 292 228.32 292 229 292 C229.16435547 291.14728516 229.16435547 291.14728516 229.33203125 290.27734375 C230.10807409 286.4980782 230.92540431 283.16784029 232.5 279.625 C234.19956683 275.5177135 234.89093282 271.63206414 235.5703125 267.2578125 C236 265 236 265 237 264 C238.05873075 257.64761552 238.10635926 251.42882667 238 245 C238.66 245 239.32 245 240 245 C240 230.15 240 215.3 240 200 C239.34 200 238.68 200 238 200 C238.01160156 199.29875 238.02320313 198.5975 238.03515625 197.875 C238.11520173 189.4587898 237.47171456 182.10173105 235 174 C234.25331212 171.21798547 233.51549016 168.43376158 232.78125 165.6484375 C232.00546729 163.0185341 231.02634098 160.54040599 230 158 C229.63128912 156.34080104 229.28718326 154.6752357 229 153 C228.34 153 227.68 153 227 153 C226.67 150.36 226.34 147.72 226 145 C225.34 145 224.68 145 224 145 C223.87625 144.113125 223.7525 143.22625 223.625 142.3125 C223.05587264 139.29612498 222.23385564 136.79673946 221 134 C220.34 134 219.68 134 219 134 C218.67 132.02 218.34 130.04 218 128 C217.34 128 216.68 128 216 128 C215.896875 127.278125 215.79375 126.55625 215.6875 125.8125 C214.93217477 122.72253314 213.80862024 120.60441314 212 118 C211.34 117.67 210.68 117.34 210 117 C210 116.01 210 115.02 210 114 C209.34 114 208.68 114 208 114 C207.67 112.35 207.34 110.7 207 109 C206.34 109 205.68 109 205 109 C203.66666667 106.33333333 202.33333333 103.66666667 201 101 C200.34 101 199.68 101 199 101 C199 100.01 199 99.02 199 98 C198.34 98 197.68 98 197 98 C196.67 97.01 196.34 96.02 196 95 C195.34 95 194.68 95 194 95 C193.731875 94.195625 193.46375 93.39125 193.1875 92.5625 C192.795625 91.716875 192.40375 90.87125 192 90 C191.01 89.67 190.02 89.34 189 89 C187.8125 86.4375 187.8125 86.4375 187 84 C186.34 84 185.68 84 185 84 C185 83.34 185 82.68 185 82 C183.34997172 80.64613064 181.6825613 79.31321858 180 78 C179.67 77.34 179.34 76.68 179 76 C178.34 76 177.68 76 177 76 C176.67 75.01 176.34 74.02 176 73 C175.34 73 174.68 73 174 73 C174 72.34 174 71.68 174 71 C173.360625 70.896875 172.72125 70.79375 172.0625 70.6875 C171.381875 70.460625 170.70125 70.23375 170 70 C169.67 69.01 169.34 68.02 169 67 C168.34 67 167.68 67 167 67 C167 66.34 167 65.68 167 65 C164.36315253 62.60179695 164.36315253 62.60179695 161 62 C161 61.34 161 60.68 161 60 C159.35 59.67 157.7 59.34 156 59 C156 58.34 156 57.68 156 57 C153.36315253 54.60179695 153.36315253 54.60179695 150 54 C150 53.34 150 52.68 150 52 C148.35 51.67 146.7 51.34 145 51 C145 50.34 145 49.68 145 49 C143.88625 48.5978125 143.88625 48.5978125 142.75 48.1875 C140 47 140 47 138 45.4375 C135.67537209 43.76667369 133.80890941 43.39012631 131 43 C131 42.34 131 41.68 131 41 C129.02 40.67 127.04 40.34 125 40 C125 39.34 125 38.68 125 38 C122.69 37.67 120.38 37.34 118 37 C118 36.34 118 35.68 118 35 C116.68 35 115.36 35 114 35 C114 34.34 114 33.68 114 33 C110.04 32.505 110.04 32.505 106 32 C106 31.34 106 30.68 106 30 C103.03 29.67 100.06 29.34 97 29 C97 28.34 97 27.68 97 27 C89.52364015 24.79805312 89.52364015 24.79805312 81.875 23.375 C79 23 79 23 78 22 C71.69151876 20.73830375 65.41162186 20.90524697 59 21 C59 20.34 59 19.68 59 19 C44.15 19 29.3 19 14 19 Z " fill="#FFFFFF" transform="translate(219,33)"/>
</svg>
