<?xml version="1.0" encoding="UTF-8"?>
<svg version="1.1" xmlns="http://www.w3.org/2000/svg" width="512" height="512">
<path d="M0 0 C0.81065918 0.00353485 1.62131836 0.0070697 2.45654297 0.01071167 C15.65020841 0.10840279 26.9208519 1.70360281 38.8125 7.75 C40.04276439 8.33116197 41.27322473 8.91190937 42.50390625 9.4921875 C58.40071341 17.48664209 70.26960991 28.78557081 79.8125 43.75 C80.48732422 44.80574219 80.48732422 44.80574219 81.17578125 45.8828125 C86.67964923 55.11840521 89.60385264 64.71968665 91.07495117 75.28222656 C91.98757435 83.89800699 91.98757435 83.89800699 96.00390625 91.24609375 C98.55442837 92.68295278 101.07852783 93.71440448 103.8125 94.75 C121.38571676 106.70771516 132.5613211 131.32760833 136.41992188 151.57763672 C137.2209697 158.05078065 137.14514802 164.56624778 137.12817383 171.08056641 C137.12501529 173.61274367 137.14853235 176.14374776 137.17382812 178.67578125 C137.25371991 198.4747378 131.31773978 217.97629085 117.79296875 232.9921875 C105.39242359 244.83414954 90.194005 248.00587752 73.6328125 247.77172852 C72.64653366 247.76212097 71.66025482 247.75251343 70.64408875 247.74261475 C67.40848173 247.70983169 64.17301864 247.66942152 60.9375 247.62890625 C58.68449398 247.60458488 56.43148274 247.58074235 54.1784668 247.55735779 C48.26672394 247.49471757 42.35507416 247.42559467 36.44342041 247.35510254 C30.40372941 247.28423726 24.36397275 247.21952939 18.32421875 247.15429688 C6.48690494 247.02554332 -5.35030641 246.88936892 -17.1875 246.75 C-17.1875 238.17 -17.1875 229.59 -17.1875 220.75 C-13.24550659 220.72812622 -13.24550659 220.72812622 -9.22387695 220.70581055 C-0.49866278 220.65526217 8.2263767 220.58863243 16.95141888 220.51428509 C22.23655838 220.46973573 27.52162353 220.43044631 32.80688477 220.40356445 C37.91637845 220.3773766 43.0255836 220.33686688 48.13489723 220.28681374 C50.07508542 220.27024903 52.0153234 220.25867053 53.95557213 220.25238609 C76.50821033 220.2584947 76.50821033 220.2584947 95.9296875 209.84765625 C106.33018858 198.99581267 110.64651784 185.22946852 111.1875 170.375 C111.01298766 163.95682401 109.68741233 157.66202548 108.46875 151.375 C107.8125 147.75 107.8125 147.75 107.8125 144.75 C107.1525 144.75 106.4925 144.75 105.8125 144.75 C105.29300781 143.67621094 104.77351563 142.60242188 104.23828125 141.49609375 C103.5341835 140.05973435 102.82973775 138.6235455 102.125 137.1875 C101.78533203 136.48302734 101.44566406 135.77855469 101.09570312 135.05273438 C95.26180883 123.22137865 87.1962005 115.71705211 74.8125 110.75 C72.90235345 110.18632293 70.98368732 109.65092531 69.05859375 109.140625 C68.07431396 108.87797852 67.09003418 108.61533203 66.07592773 108.34472656 C65.32899658 108.1484668 64.58206543 107.95220703 63.8125 107.75 C63.8439209 106.69425781 63.8439209 106.69425781 63.87597656 105.6171875 C64.50948143 81.04682138 62.26299943 62.42772152 44.8125 43.75 C32.99313255 32.67083536 15.59482135 27.28928602 -0.4140625 27.53515625 C-17.69970743 28.87418508 -33.44337797 34.69497656 -46.1875 46.75 C-48.64527725 49.77907672 -48.64527725 49.77907672 -50.8125 53.0625 C-51.39052368 53.9136438 -51.39052368 53.9136438 -51.98022461 54.78198242 C-54.77450458 58.96122752 -57.12334574 63.17296229 -59.1875 67.75 C-62.64366172 67.16639375 -64.22434732 66.00944773 -66.6875 63.5625 C-76.36598327 54.81774795 -89.83920832 49.91308382 -102.875 50.26953125 C-114.35179445 51.9342078 -126.98379903 57.31070033 -134.4375 66.375 C-142.39976417 78.03087004 -144.41426538 90.91731181 -144.1875 104.75 C-144.5175 105.41 -144.8475 106.07 -145.1875 106.75 C-147.57560249 107.10548091 -149.91080311 107.35659263 -152.3125 107.5625 C-168.2289753 109.27570064 -182.99691856 114.73360353 -193.41015625 127.3828125 C-205.46375921 143.43662215 -207.29549948 161.00486539 -204.6796875 180.54296875 C-202.48265745 190.30333789 -197.92362885 198.31880137 -191.54296875 205.9375 C-190.1875 207.75 -190.1875 207.75 -190.1875 209.75 C-189.33285156 210.15412109 -189.33285156 210.15412109 -188.4609375 210.56640625 C-186.1875 211.75 -186.1875 211.75 -184.1015625 213.15234375 C-171.73138904 221.44838158 -157.68939501 221.20008232 -143.35546875 221.2265625 C-141.58424211 221.24090577 -139.81302646 221.25666862 -138.04182434 221.27377319 C-133.42774614 221.31523085 -128.81373624 221.34049907 -124.19952393 221.36126709 C-116.7701673 221.39738882 -109.34097796 221.45794866 -101.91179848 221.51975632 C-99.32085342 221.53885693 -96.72995389 221.55056914 -94.13896179 221.56118774 C-92.5668426 221.57138974 -90.9947244 221.58174679 -89.42260742 221.59228516 C-88.70013824 221.59332748 -87.97766907 221.59436981 -87.23330688 221.59544373 C-82.30094535 221.63655465 -82.30094535 221.63655465 -81.1875 222.75 C-81.10012355 224.60369611 -81.08051847 226.46067541 -81.08984375 228.31640625 C-81.09306641 229.44111328 -81.09628906 230.56582031 -81.09960938 231.72460938 C-81.10798828 232.90861328 -81.11636719 234.09261719 -81.125 235.3125 C-81.12951172 236.50037109 -81.13402344 237.68824219 -81.13867188 238.91210938 C-81.15050325 241.85812226 -81.16698713 244.80403681 -81.1875 247.75 C-92.27178956 247.81988394 -103.35602566 247.87300461 -114.44049168 247.90543652 C-119.58890699 247.9210117 -124.73717022 247.94209893 -129.88549805 247.97631836 C-134.86518256 248.00920515 -139.84472192 248.02691407 -144.82450676 248.03463173 C-146.71286233 248.04012312 -148.60121105 248.05084437 -150.48950386 248.06719017 C-171.60326217 248.24248821 -191.67823156 245.62602148 -207.6875 230.3671875 C-223.1875 214.140625 -223.1875 214.140625 -223.1875 207.75 C-223.8475 207.75 -224.5075 207.75 -225.1875 207.75 C-225.98509757 205.43940246 -226.77561227 203.12674567 -227.5625 200.8125 C-227.89507812 199.8524707 -227.89507812 199.8524707 -228.234375 198.87304688 C-228.92163589 196.84158454 -229.5656105 194.80240336 -230.1875 192.75 C-230.38529053 192.10297119 -230.58308105 191.45594238 -230.78686523 190.78930664 C-232.57932319 184.00718516 -232.52505606 177.13729831 -232.50317383 170.16821289 C-232.50003181 168.08360533 -232.52347727 166.00044691 -232.54882812 163.91601562 C-232.65813721 140.86458908 -225.03995574 121.77122543 -209.265625 105.00390625 C-207.13529828 102.77075049 -207.13529828 102.77075049 -205.2890625 100.2109375 C-198.74420586 92.54688605 -184.04554208 85.07107801 -174.0847168 83.39648438 C-173.45863525 83.18314453 -172.83255371 82.96980469 -172.1875 82.75 C-171.13312118 80.04091686 -170.32192116 77.47927956 -169.5625 74.6875 C-163.81483447 55.736301 -152.29748249 41.60343412 -135.10498047 31.76367188 C-129.68886975 28.90045674 -123.93541394 26.83952771 -118.1875 24.75 C-117.29417969 24.38003906 -116.40085937 24.01007813 -115.48046875 23.62890625 C-99.55648445 17.5251644 -82.04544779 23.82173476 -67.1875 29.75 C-66.83300781 29.27691406 -66.47851562 28.80382812 -66.11328125 28.31640625 C-50.45711011 8.86939464 -24.22450945 -0.29492918 0 0 Z " fill="#FFFFFF" transform="translate(303.1875,67.25)"/>
<path d="M0 0 C3.86512241 2.15856478 4.51975296 4.18587944 7.3125 8.375 C7.3125 36.095 7.3125 63.815 7.3125 92.375 C-84.7575 92.375 -176.8275 92.375 -271.6875 92.375 C-271.6875 9.375 -271.6875 9.375 -267.6875 3.375 C-264.13235733 0.63350854 -260.47925756 -0.51579206 -256.0625 -1.125 C-250.77319002 -0.34139852 -247.85539518 2.04928115 -244.375 6 C-233.47837184 21.33599518 -241.6875 43.56199244 -241.6875 62.375 C-169.4175 62.375 -97.1475 62.375 -22.6875 62.375 C-22.6875 44.885 -22.6875 27.395 -22.6875 9.375 C-17.63161688 0.52720454 -10.4693674 -5.30150945 0 0 Z " fill="#FFFFFF" transform="translate(395.6875,329.625)"/>
<path d="M0 0 C1.34682051 0.63643938 2.672093 1.31979905 3.9765625 2.0390625 C4.72397705 2.45075684 5.4713916 2.86245117 6.24145508 3.28662109 C7.0280249 3.72828613 7.81459473 4.16995117 8.625 4.625 C9.44186279 5.08084473 10.25872559 5.53668945 11.1003418 6.00634766 C15.96916782 8.75679535 20.53749605 11.68877348 25.03125 15.01953125 C30.33489325 18.55761957 35.98921388 21.54525235 41.6027832 24.56201172 C47.50785618 27.82404691 51.90548036 30.81096073 55 37 C55.0952699 38.47668337 55.12985959 39.95775457 55.125 41.4375 C55.12886719 42.61119141 55.12886719 42.61119141 55.1328125 43.80859375 C55 46 55 46 54 49 C53.34 49 52.68 49 52 49 C51.79375 49.598125 51.5875 50.19625 51.375 50.8125 C49.39531636 53.9619967 47.46892258 54.71521386 44 56 C34.11463084 57.53393659 25.98277415 51.16488649 17.78027344 46.37524414 C16.15723297 45.42773033 16.15723297 45.42773033 14.50140381 44.46107483 C13.67594055 43.97892014 12.85047729 43.49676544 12 43 C12.00999275 44.86255684 12.00999275 44.86255684 12.02018738 46.76274109 C12.08098334 58.46049136 12.12596543 70.1582096 12.15543652 81.85608196 C12.17109719 87.87018604 12.19234309 93.88416265 12.22631836 99.89819336 C12.25889704 105.70127937 12.27684999 111.50424271 12.28463173 117.3074131 C12.29017788 119.52221419 12.30100805 121.73700851 12.31719017 123.95175743 C12.33894427 127.05221479 12.34196772 130.15216424 12.34057617 133.25268555 C12.351362 134.16978302 12.36214783 135.08688049 12.3732605 136.0317688 C12.34086055 142.69630784 11.04924347 145.95075653 6.25 150.75 C2.53459537 153.32220321 0.50236623 154 -4 154 C-9.19990084 152.38623767 -12.56224525 150.22352726 -16 146 C-18.24679094 140.82031649 -18.30518122 136.04899487 -18.31884766 130.50634766 C-18.32889328 129.56912872 -18.3389389 128.63190979 -18.34928894 127.66629028 C-18.38006969 124.58222034 -18.39714198 121.49823701 -18.4140625 118.4140625 C-18.43277824 116.27028664 -18.45235196 114.12651811 -18.4727478 111.98275757 C-18.52403198 106.35056893 -18.56367769 100.71835641 -18.60089111 95.08605957 C-18.64095396 89.3346569 -18.69203593 83.58335323 -18.7421875 77.83203125 C-18.83890287 66.55475708 -18.92332179 55.27742696 -19 44 C-19.62455078 44.36351562 -20.24910156 44.72703125 -20.89257812 45.1015625 C-23.75177894 46.75232241 -26.62541548 48.37618889 -29.5 50 C-30.48226562 50.57234375 -31.46453125 51.1446875 -32.4765625 51.734375 C-38.32163488 55.00761554 -42.28147458 56.81893429 -49 56 C-53.06004789 54.75861845 -55.64868215 52.3963586 -58.4375 49.25 C-60.77300642 44.39214664 -60.57366417 40.67709947 -59.4375 35.375 C-55.08162262 28.17833303 -46.83411806 24.43493743 -39.6875 20.5625 C-32.94612974 16.89303451 -26.51919563 13.08875709 -20.27954102 8.61303711 C-17.15518276 6.40219476 -13.93616086 4.41579695 -10.625 2.5 C-10.03589844 2.14164063 -9.44679687 1.78328125 -8.83984375 1.4140625 C-5.39037885 -0.58585198 -3.75448313 -1.30710974 0 0 Z " fill="#FFFFFF" transform="translate(258,207)"/>
</svg>
